<?xml version="1.0" encoding="UTF-8"?>
<svg id="Layer_2" data-name="Layer 2" xmlns="http://www.w3.org/2000/svg" viewBox="0 0 3804.58 2716.2">
  <defs>
    <style>
      .cls-1, .cls-2 {
        stroke-width: 6px;
      }

      .cls-1, .cls-2, .cls-3, .cls-4, .cls-5, .cls-6, .cls-7, .cls-8, .cls-9 {
        fill: none;
      }

      .cls-1, .cls-2, .cls-10, .cls-4, .cls-11, .cls-5, .cls-7, .cls-8, .cls-9 {
        stroke-miterlimit: 10;
      }

      .cls-1, .cls-3, .cls-10, .cls-4, .cls-11, .cls-6, .cls-7 {
        stroke: #573240;
      }

      .cls-1, .cls-3, .cls-10, .cls-4, .cls-11, .cls-6, .cls-7, .cls-8, .cls-9 {
        stroke-linecap: round;
      }

      .cls-2, .cls-5 {
        stroke: #ff6e00;
      }

      .cls-12, .cls-11 {
        fill: #f1b104;
      }

      .cls-13 {
        fill: #f6acc1;
      }

      .cls-14, .cls-10 {
        fill: #fff;
      }

      .cls-15 {
        fill: #fde5e3;
      }

      .cls-16 {
        fill: #ff6e00;
      }

      .cls-17 {
        fill: #96cfce;
      }

      .cls-18 {
        fill: #a9d8d5;
      }

      .cls-19 {
        fill: #e0f1f0;
      }

      .cls-20 {
        fill: #573240;
      }

      .cls-3, .cls-10, .cls-11, .cls-7, .cls-8, .cls-9 {
        stroke-width: 5px;
      }

      .cls-3, .cls-6 {
        stroke-linejoin: round;
      }

      .cls-4, .cls-5, .cls-6 {
        stroke-width: 4px;
      }

      .cls-21 {
        opacity: .29;
      }

      .cls-8 {
        stroke: #fff;
      }

      .cls-9 {
        stroke: #f1b104;
      }
    </style>
  </defs>
  <g id="_Слой_1" data-name="Слой 1">
    <g>
      <g id="LAMPS">
        <g>
          <polygon class="cls-19" points="81.62 1299 768.92 332 1180.92 332 1868.32 1299 81.62 1299"/>
          <g>
            <line class="cls-7" x1="971.52" y1="2.5" x2="971.52" y2="243.4"/>
            <path class="cls-13" d="M1180.72,333.1h-412.2c.5-2.1,1.1-4.7,1.7-7.5,2.7-11.5,11.8-20.5,23.4-22.9l61.6-5.6c25.3-2.3,48.1-16.4,61.4-38l2.3-3.6c6.4-7.7,15.9-12.1,25.9-12.1h59.8c10,0,19.5,4.4,25.9,12.1l2.3,3.6c13.4,21.6,36.1,35.7,61.4,38l61.6,5.6c11.6,2.4,20.7,11.4,23.4,22.9,.4,2.8,1,5.4,1.5,7.5Z"/>
            <ellipse class="cls-20" cx="974.72" cy="332" rx="206.2" ry="17.1"/>
            <circle class="cls-9" cx="971.52" cy="359" r="30.5"/>
          </g>
        </g>
        <g>
          <polygon class="cls-19" points="1515.92 1299 2203.32 332 2615.32 332 3302.62 1299 1515.92 1299"/>
          <g>
            <line class="cls-7" x1="2405.92" y1="2.5" x2="2405.92" y2="243.4"/>
            <path class="cls-13" d="M2615.02,333.1h-412.2c.5-2.1,1.1-4.7,1.7-7.5,2.7-11.5,11.8-20.5,23.4-22.9l61.6-5.6c25.3-2.3,48.1-16.4,61.4-38l2.3-3.6c6.4-7.7,15.9-12.1,25.9-12.1h59.8c10,0,19.5,4.4,25.9,12.1l2.3,3.6c13.4,21.6,36.1,35.7,61.4,38l61.6,5.6c11.6,2.4,20.7,11.4,23.4,22.9,.4,2.8,1,5.4,1.5,7.5Z"/>
            <ellipse class="cls-20" cx="2409.02" cy="332" rx="206.2" ry="17.1"/>
            <circle class="cls-9" cx="2405.92" cy="359" r="30.5"/>
          </g>
        </g>
      </g>
      <g id="BARMAN">
        <g id="HEAD">
          <path id="HAIR" class="cls-16" d="M1571.32,539c-12.7,0-23-11.1-23-24.8s10.3-24.8,23-24.8c4.8,0,9.2,1.6,12.9,4.3,1-2.2,2.4-4.1,4.3-5.6,8.4-7,22.5-3.9,31.5,6.9,2.5,3,4.3,6.2,5.4,9.5,9.8-7.4,23.1-8.5,33.6-1.8,13.7,8.7,19.5,29.6,8.1,46.8l-95.8-10.5Z"/>
          <polygon id="NECK" class="cls-10" points="1662.02 649.9 1662.02 586.7 1574.82 586.7 1551.72 658.4 1609.32 752.5 1662.02 649.9"/>
          <path id="HEAD-2" data-name="HEAD" class="cls-10" d="M1661.02,549.6c10.5,0,18.9,8.5,18.9,18.9,0,5.2-2.1,10-5.5,13.4s-8.2,5.5-13.4,5.5h-18l-2.2,8.9c-3,12.1-14,20.6-26.5,20.6h-47c-10.2,0-17.6-9.6-15.1-19.5l16.8-64.3c3.4-13,15.1-22.1,28.6-22.1h17.3c12.1,0,21.6,10.3,20.6,22.4l-.3,3.6c-.6,6.8,4.8,12.6,11.6,12.6h14.2Z"/>
          <g id="FACE">
            <path class="cls-7" d="M1654.92,569.5c0-4.5,3.7-8.2,8.2-8.2"/>
            <path class="cls-6" d="M1591.12,588.9c5.8,2.5,12.6-.2,15.1-6l4,4.7"/>
            <ellipse class="cls-20" cx="1573.52" cy="557.7" rx="3.4" ry="5.3"/>
            <ellipse class="cls-20" cx="1608.82" cy="557.7" rx="3.4" ry="5.3"/>
            <path class="cls-4" d="M1579.12,538.7c2.7,0,4.9,2.2,4.9,4.9v28.8c0,3,2.4,5.4,5.4,5.4h3.3"/>
            <path class="cls-16" d="M1582.72,545.2h-17.3c-1.8,0-3.2-1.4-3.2-3.2v-2.8c0-1.8,1.4-3.2,3.2-3.2h17.3c1.8,0,3.2,1.4,3.2,3.2v2.8c0,1.8-1.4,3.2-3.2,3.2Z"/>
            <path class="cls-16" d="M1620.72,545.2h-16.9c-1.8,0-3.2-1.4-3.2-3.2v-2.8c0-1.8,1.4-3.2,3.2-3.2h16.9c1.8,0,3.2,1.4,3.2,3.2v2.8c0,1.8-1.5,3.2-3.2,3.2Z"/>
          </g>
        </g>
        <g id="LEGS">
          <path class="cls-17" d="M1368.92,2591.6s113.9,23.9,216.3,7.4c0,0,122.5-298.8,41.5-629l24.2-344.8s147.9,617.5,133.6,966.4c0,0,126.9,21.4,224.8,7.8,0,0,52.3-414.8-50.6-733,0,0-56.6-277.3-91.6-558.2h-467.5c-3.8,277.7,1.2,1215.1-30.7,1283.4Z"/>
          <path class="cls-20" d="M1601.82,2687.7h-73.1c-1.5-8.7-8.3-15.3-16.5-15.3s-15.1,6.6-16.5,15.3h-196.1c-7.5,0-10.3-9.7-4.1-13.8,28.4-18.5,62.5-49.9,73.4-82.3,0,0,116.1,21.7,215,7.5,0,0,24.5,4.8,17.9,88.6Z"/>
          <path class="cls-20" d="M2027.32,2687.7h-73.1c-1.5-8.7-8.3-15.3-16.5-15.3s-15.1,6.6-16.5,15.3h-206.1c-7.5,0-10.3-9.7-4.1-13.8,28.4-18.5,62.5-49.9,73.4-82.3,0,0,126.1,21.7,225,7.5,.1,0,24.6,4.8,17.9,88.6Z"/>
        </g>
        <path id="SHIRT" class="cls-18" d="M1834.02,942l59.3,77.2-50.3,7,37.8,170.6h77c112.4,0,184.3-119.6,131.5-218.9l-111.3-209.6c-27.9-43.7-74.2-72.5-125.8-78l-165.1-20.1-11.8-19.2c-2.7-4.4-7.5-7-12.6-7l-29,.3c-7,.1-12.8,5.4-13.7,12.3l-9.5,75.5-17.1-76.1c-1.4-6.4-7.1-11-13.7-11h-26.3c-4.3,0-8.4,1.9-11.2,5.2l-17.6,20.8-80.4,3.5c-18,.8-35.9,3.6-53.2,8.3l-377,104.3v34c0,79.8,4.7,144.5,84.5,144.5h283.4c15.1,0,27,12.9,25.9,27.9l-1.9,25.1,417.3-2.6-13.8-62.4c-3.4-14.4,15.3-23.3,24.6-11.6Z"/>
        <path id="APRON" class="cls-20" d="M1985.32,1664.6l-648.6-.1,105.4-981.2c.7-6,5.7-10.5,11.8-10.5h32.8v145.8c0,20.5,16.6,37.1,37.1,37.1h172.5c20.5,0,37.1-16.6,37.1-37.1v-143l21.7,2.1c9.5,1.1,17.3,8.2,19.3,17.6l210.9,969.3Z"/>
        <g id="HANDS">
          <path id="LEFT_HAND" data-name="LEFT HAND" class="cls-10" d="M1367.92,594.1l-166,308.7c-18.6,38.5-57.6,63-100.3,63h0c-93.8,0-145.6-108.9-86.4-181.7l277.6-294.6,75.1,104.6Z"/>
          <g id="BOTTLE_CUP" data-name="BOTTLE &amp;amp; CUP">
            <g>
              <path class="cls-13" d="M1528.52,685.6c-6.1-7.4-17.1-8.9-25-3.2-8.2,5.9-10.1,17.4-4.3,25.7l-43.1-56.1c-19.4,11.6-44.8,6.6-58.3-12.1l-142.3-198.1-.1-.1c-8.4-12,6-36.9,32.2-55.8,26.3-18.9,54.5-24.6,63.1-12.8l.1,.1,142.3,198c13.4,18.7,10.1,44.4-7.1,59.1l42.5,55.3Z"/>
              <path class="cls-20" d="M1529.22,686.5h0c6,8.4,4.1,19.9-4.2,25.9-8.3,5.9-19.8,4.1-25.8-4.2l-.1-.1c-5.9-8.3-4-19.7,4.3-25.7,8.3-5.9,19.8-4.1,25.8,4.1Z"/>
            </g>
            <g>
              <path class="cls-16" d="M1664.52,989v47.6c0,16.6-13.4,30-30,30h-39.5c-16.6,0-30-13.5-30-30v-47.6c.1,16.2,22.3,29.3,49.8,29.3,27.4,0,49.6-13.1,49.7-29.3Z"/>
              <path class="cls-14" d="M1664.52,989h0c-.1,16.2-22.3,29.3-49.8,29.3s-49.7-13.1-49.8-29.3v-.1c0-16.2,22.3-29.3,49.8-29.3s49.8,13.2,49.8,29.4Z"/>
              <path class="cls-12" d="M1664.52,957.6v31.4c0,12.6-13.4,23.3-32.3,27.5-20.6-3.4-38.4-17-47-36.5l-5.3-12-4.2-9.6c-6.8-15.4-10.2-32-10.2-48.7v-42.9c0-13.8-3.8-27.1-10.7-38.5s-16.8-21-29-27.5c-16.4-8.7-26.6-25.7-26.6-44.2v-61.5h0c12.8-.2,23.2,10.1,23.2,22.9v2.8c0,17,9.4,32.5,24.5,40.3l24.2,7.4c15.1,7.8,27.4,19.5,35.9,33.5s13.2,30.3,13.2,47.3c0,11.1,2.2,21.9,6.3,31.9s10.1,19.3,17.9,27.2c12.9,13.1,20.1,30.8,20.1,49.2Z"/>
            </g>
          </g>
          <g id="RIGHT">
            <path class="cls-10" d="M1971.62,1196.8h-374.6c-37.9,0-68.6-30.7-68.6-68.6v-65.8c0-16,12.9-28.9,28.9-28.9h4.6v3.1c0,16.6,13.4,30,30,30h45.5c16.6,0,30-13.4,30-30v-29.8h12.9c6.9,0,13.5,2.6,18.6,7.2l13.3,20,259.4-17c49.6,0,89.9,40.3,89.9,89.9h0c0,49.7-40.2,89.9-89.9,89.9Z"/>
            <path class="cls-7" d="M1528.52,1121.9l25.3,30.1c5.8,6.4,14,10,22.6,10h39.7"/>
            <path class="cls-7" d="M1528.52,1090.9l25.3,30.1c5.8,6.4,14,10,22.6,10h39.7"/>
            <path class="cls-7" d="M1528.52,1058.9l25.3,30.1c5.8,6.4,14,10,22.6,10h39.7"/>
          </g>
          <g id="LEFT_HAND-2" data-name="LEFT HAND">
            <path class="cls-10" d="M1386.92,418.8h0c9.4-9.5,25.1-8.4,33.1,2.3l52.2,69c8.6,11.3,8.2,27-.9,37.9l-30.5,36.5c-7.8,9.3-22.3,9-29.6-.8l-36.4-48.4c-6.5-8.6-6.2-20.5,.6-28.8l20.3-24.9c6.9-8.5,7.3-20.5,.9-29.4l-9.7-13.4Z"/>
            <path class="cls-7" d="M1457.42,509.1l-30.5,36.5c-7.8,9.3-22.3,9-29.6-.8"/>
            <path class="cls-7" d="M1442.42,489.1l-30.5,36.5c-7.8,9.3-22.3,9-29.6-.8"/>
            <path class="cls-7" d="M1428.42,469.1l-30.5,36.5c-6.8,8.2-18.8,8.9-26.6,2.5"/>
          </g>
        </g>
      </g>
      <g id="BAR">
        <rect class="cls-15" x="91.52" y="1297" width="3250.1" height="1395.8"/>
        <line class="cls-7" x1="3426.02" y1="1297.6" x2="7.02" y2="1297.6"/>
        <line class="cls-7" x1="3426.02" y1="1342.6" x2="7.02" y2="1342.6"/>
      </g>
      <g id="_2_MAN" data-name="2 MAN">
        <g id="LEGS-2" data-name="LEGS">
          <g id="LEGS-3" data-name="LEGS">
            <path class="cls-18" d="M3541.42,1279.5v1294.9h-287.8v-162.8l-199.2-252.5c-43.1-54.6-63.5-123.8-57-193.1l54.8-582.4,4.3-99.4,484.9-4.7Z"/>
            <polyline class="cls-7" points="3540.82 2376.4 3281.62 1973.4 3322.92 1511.6 3366.02 1502.5"/>
            <line class="cls-7" x1="3254.62" y1="2416.5" x2="3392.02" y2="2569"/>
          </g>
          <g id="SHOES">
            <g>
              <g>
                <rect class="cls-14" x="3295.92" y="2574.3" width="202.9" height="40.1"/>
                <g>
                  <rect class="cls-16" x="3313.42" y="2574.3" width="4" height="40.1"/>
                  <rect class="cls-16" x="3334.42" y="2574.3" width="4" height="40.1"/>
                  <rect class="cls-16" x="3355.42" y="2574.3" width="4" height="40.1"/>
                  <rect class="cls-16" x="3376.42" y="2574.3" width="4" height="40.1"/>
                  <rect class="cls-16" x="3397.42" y="2574.3" width="4" height="40.1"/>
                  <rect class="cls-16" x="3418.42" y="2574.3" width="4" height="40.1"/>
                  <rect class="cls-16" x="3439.42" y="2574.3" width="4" height="40.1"/>
                  <rect class="cls-16" x="3460.42" y="2574.3" width="4" height="40.1"/>
                  <rect class="cls-16" x="3481.42" y="2574.3" width="4" height="40.1"/>
                </g>
              </g>
              <path class="cls-20" d="M3295.52,2614.3l-45.4,73.3c-6.5,10.5,1,24,13.4,24h209.5c14.2,0,25.6-11.5,25.6-25.7l-.3-71.7h-202.8v.1Z"/>
            </g>
            <g>
              <g>
                <polygon class="cls-14" points="3435.52 2602.3 3395.02 2565 3519.92 2403.9 3557.12 2445.8 3435.52 2602.3"/>
                <polygon class="cls-16" points="3445.62 2589.2 3443.22 2592.4 3400.72 2557.7 3403.12 2554.5 3445.62 2589.2"/>
                <polygon class="cls-16" points="3457.02 2574.6 3454.52 2577.7 3412.12 2543 3414.52 2539.9 3457.02 2574.6"/>
                <polygon class="cls-16" points="3468.42 2560 3465.92 2563.1 3423.42 2528.4 3425.92 2525.2 3468.42 2560"/>
                <polygon class="cls-16" points="3480.22 2544.7 3477.82 2547.9 3435.22 2513.2 3437.72 2510 3480.22 2544.7"/>
                <polygon class="cls-16" points="3491.62 2530.1 3489.12 2533.3 3446.62 2498.5 3449.02 2495.3 3491.62 2530.1"/>
                <polygon class="cls-16" points="3503.82 2514.3 3501.42 2517.5 3458.42 2483.2 3460.92 2480.1 3503.82 2514.3"/>
                <polygon class="cls-16" points="3514.82 2500.2 3512.32 2503.4 3469.72 2468.6 3472.22 2465.5 3514.82 2500.2"/>
                <polygon class="cls-16" points="3527.52 2483.9 3525.02 2487 3482.52 2452.2 3484.92 2449 3527.52 2483.9"/>
                <polygon class="cls-16" points="3540.72 2466.9 3538.22 2470.1 3495.62 2435.2 3498.12 2432.1 3540.72 2466.9"/>
                <polygon class="cls-16" points="3553.32 2450.6 3550.92 2453.7 3508.32 2418.8 3510.82 2415.7 3553.32 2450.6"/>
              </g>
              <path class="cls-20" d="M3634.62,2474.6l-43.7,74.9-19.3-8.4-15.5,67.9h0l-52.5,89.8c-4.6,7.9-13.1,12.8-22.2,12.8h-66.8s42.2-55.7,20.8-109.4l108.5-142.7c10.3-13.6,29-17.7,44.1-9.7l46.6,24.8Z"/>
              <path class="cls-8" d="M3414.62,2713.7s46.4-75,20.8-114.4"/>
            </g>
          </g>
        </g>
        <g id="SHIRT-2" data-name="SHIRT">
          <path class="cls-14" d="M3061.22,1141.4l-257.4-5.2,168-303.5c35.5-63.3,102.4-102.5,175-102.5h386.9c78.8,0,148.1,52.2,169.8,127.9l92.3,283c41.1,141.8-128.6,249.3-239.3,151.6l-1.3-1.1c-17.8,43.4-70.8,133.6-209.7,156.7l-22.3-93.6-13.5,98.1c-183.8,18.1-243.8-50.4-257.3-69.4l8.8-242Z"/>
          <path class="cls-7" d="M3556.52,1292.8c110.7,97.7,280.3-9.8,239.3-151.6l-92.3-283c-21.7-75.7-91-127.9-169.8-127.9h-386.9c-72.6,0-139.5,39.2-175,102.5l-168,303.5"/>
          <line class="cls-7" x1="3035.12" y1="1128" x2="3102.62" y2="996.7"/>
          <line class="cls-7" x1="3060.92" y1="1158.7" x2="3060.92" y2="1078.8"/>
        </g>
        <g id="HEAD-3" data-name="HEAD">
          <path id="NECK-2" data-name="NECK" class="cls-12" d="M3404.32,730.2l-56.2,184.2-66.2-184.2,11.7-59.1c4.6,3.8,10.4,6.1,16.8,6.1h40.5c14.3,0,26.3-9.7,30-22.8h14.6l8.8,75.8Z"/>
          <path id="HEAD-4" data-name="HEAD" class="cls-12" d="M3417.62,628.6v5.1c0,11.4-9.3,20.7-20.7,20.7h-16.1c-3.6,13.1-15.7,22.8-30,22.8h-40.5c-6.4,0-12.2-2.3-16.8-6.1-5.9-4.8-9.6-12.1-9.6-20.3v-61.8c0-15.1,14.4-26,28.9-21.9l38.9,10.9c8.5,2.4,14.4,10.2,14.4,19v18.5c0,4.5,3.4,7.8,7.4,8.3v-1.8c0-7.7,6.2-13.9,13.9-13.9h9.3c11.6-.1,20.9,9.1,20.9,20.5Z"/>
          <path id="HAIR-2" data-name="HAIR" class="cls-20" d="M3399.12,590.2c0,2.9-2.2,11.1-4.2,17.8h-7.3c-7.7,0-13.9,6.2-13.9,13.9v1.7l-.2,.1h-.1c-.3-.1-1.2-.4-2.5-.8-2.6-1.3-4.5-4.1-4.5-7.4v-18.5c0-8.9-5.9-16.7-14.4-19l-38.9-10.9c-12.7-3.6-25.4,4.4-28.3,16.6-.2-.2-.4-.4-.6-.7-17.1-18.2-17.5-52,5.5-59.2,22.7-7.3,109.4,61.2,109.4,66.4Z"/>
          <g id="FACE-2" data-name="FACE">
            <path class="cls-6" d="M3314.32,649.9c6.4,2.8,13.9-.2,16.6-6.6"/>
            <path class="cls-20" d="M3304.22,604.1h-19.7c-1.8,0-3.2-1.4-3.2-3.2v-3.7c0-1.8,1.4-3.2,3.2-3.2h19.7c1.8,0,3.2,1.4,3.2,3.2v3.7c0,1.8-1.4,3.2-3.2,3.2Z"/>
            <path class="cls-20" d="M3346.12,604.1h-19.3c-1.8,0-3.2-1.4-3.2-3.2v-3.7c0-1.8,1.4-3.2,3.2-3.2h19.3c1.8,0,3.2,1.4,3.2,3.2v3.7c0,1.8-1.4,3.2-3.2,3.2Z"/>
            <ellipse class="cls-20" cx="3291.42" cy="617.9" rx="3.8" ry="5.8"/>
            <ellipse class="cls-20" cx="3332.72" cy="617.9" rx="3.8" ry="5.8"/>
            <path class="cls-4" d="M3299.92,596.9c3,0,5.4,2.4,5.4,5.4v31.8c0,3.3,2.7,6,6,6h3.6"/>
            <g>
              <path class="cls-5" d="M3302.42,630.7h-24.9c-1.6,0-2.9-1.3-2.9-2.9v-20.8c0-1.6,1.3-2.9,2.9-2.9h24.9c1.6,0,2.9,1.3,2.9,2.9v20.8c0,1.6-1.3,2.9-2.9,2.9Z"/>
              <path class="cls-5" d="M3349.42,630.7h-24.9c-1.6,0-2.9-1.3-2.9-2.9v-20.8c0-1.6,1.3-2.9,2.9-2.9h24.9c1.6,0,2.9,1.3,2.9,2.9v20.8c0,1.6-1.3,2.9-2.9,2.9Z"/>
              <line class="cls-5" x1="3305.32" y1="614.3" x2="3321.62" y2="614.3"/>
              <line class="cls-5" x1="3352.32" y1="614.3" x2="3378.82" y2="614.3"/>
            </g>
            <path class="cls-7" d="M3382.02,658c-4.4,11.8-15.8,20.2-29.1,20.2h-56"/>
            <path class="cls-4" d="M3386.02,632c0-7,5.7-12.7,12.7-12.7"/>
          </g>
        </g>
        <g id="TIE">
          <path class="cls-20" d="M3437.82,753.8l-50.1,101.2h.2l-28.2,56.7,40.5,334.3-46.4,71.3-53.3-70.6,36-332.6-86.8-158.8c-7.8-14.3-3.9-32.2,9.1-41.9l30.9-23.1-5.8,29.5c-1.4,6.9-.8,14.1,1.6,20.7l41.2,114.6h39.5l35.7-117c1.6-5.1,2.1-10.5,1.4-15.9l-3.7-32,29.4,23.6c12,9.6,15.6,26.2,8.8,40Z"/>
        </g>
        <g id="HANDS-2" data-name="HANDS">
          <g>
            <path class="cls-12" d="M3766.42,1261.3c-14.2,55.6-72.3,81.9-120.2,81.9-40.7,0-81.5-21.2-102-65.4l-129.6-246.7h-62.5c-41.6,0-75.3-33.7-75.3-75.3v-73.2c0-15.3,12.4-27.6,27.6-27.6l19.3,35.5c.6,1.1,1.3,2.2,2,3.3h0c7,10.2,18.7,16.5,31.2,16.5h47.7c5.4,0,9.7-4.4,9.7-9.7,0-2.7-1.1-5.1-2.9-6.9-1.8-1.8-4.2-2.9-6.9-2.9h-8.6c-8.4,0-16-3.5-21.4-9l13.3-26.7h56.1c27,0,52.1,14,66.2,37.1l242.6,281.3c16.4,26,21.4,57.8,13.7,87.8Z"/>
            <line class="cls-7" x1="3441.22" y1="1028" x2="3404.72" y2="1028"/>
            <path class="cls-7" d="M3278.82,960.9l26.1,31.1c6,6.6,14.4,10.3,23.3,10.3h41"/>
            <path class="cls-7" d="M3278.82,928.9l26.1,31.1c6,6.6,14.4,10.3,23.3,10.3h41"/>
            <path class="cls-7" d="M3278.82,895.9l26.1,31.1c6,6.6,14.4,10.3,23.3,10.3h41"/>
          </g>
          <g>
            <path class="cls-12" d="M3278.72,1341.9c-14.3,5.5-30.4,.1-38.4-13l-5.6-9.1c-2.2-3.5-6.6-5-10.5-3.5h0c-4.2,1.6-6.4,6.1-5.2,10.4l32.1,110.6c3.6,10-4.3,20.4-14.9,19.8l-90.3-5.3c-12.7-1-23.7-9.2-28.3-21.1l-35.5-95-206.6-56.8c-64.8-12.8-101.8-81.6-76.8-142.7h0c23-56.3,89-81.3,143.6-54.4l286.1,162c8.9,3.7,15.9,10.8,19.4,19.7l30.9,78.4Z"/>
            <path class="cls-7" d="M3123.62,1366.1l23.9,63.7c4.6,11.9,15.6,20.1,28.3,21.1"/>
            <path class="cls-7" d="M3155.42,1368.1l23.9,63.7c4.6,11.9,15.6,20.1,28.3,21.1"/>
            <path class="cls-7" d="M3186.92,1369.2l23.9,63.7c4.6,11.9,15.6,20.1,28.3,21.1"/>
            <path class="cls-7" d="M3087.62,1353.2c-7.4-18.9-5.4-40.2,5.2-57.6"/>
          </g>
        </g>
      </g>
      <g id="WOMAN">
        <g id="LEGS-4" data-name="LEGS">
          <g id="RIGHT-2" data-name="RIGHT">
            <path class="cls-13" d="M2373.32,2434.3l4.7-18.2c6.5-25.4,26.8-44.8,52.4-50.2l12-2.5c-25.9-38.8,105.9-268.8,102.9-441s-69.7-257.7-69.7-257.7h-257.9l94.5,582.2c21,75.7,13.4,156.5-21.2,227l55-12.9c13.4-3.2,23.9-13.5,27.3-26.7Z"/>
            <path class="cls-20" d="M2485.12,2484.4l-9.1,2.2-11.6-34c-4.5-13-17.6-21-31.2-19l-.6,.1c-12.9,1.9-22.9,11.8-24.9,24.5-1.5,9.7-3.3,21-4.8,30.1-1.6,10.2-9.2,18.5-19.3,21l-115.7,28.4c-4.7,1.1-8.5-3.7-6.3-8l29.5-56.9,55-12.9c13.3-3.1,23.8-13.4,27.2-26.6l4.8-18.8c6.4-25,26.3-44.4,51.6-50.1h0c23.9-5.4,47.1,11.7,49,36.2l6.4,83.8Z"/>
          </g>
          <g id="LEFT">
            <path class="cls-13" d="M2322.32,2446.3l4.7-18.2c6.5-25.4,26.8-44.8,52.4-50.2l12-2.5c-25.9-38.8,35.9-268.8,32.9-441s-79.7-269.7-79.7-269.7h-237.9l154.5,594.2c21,75.7,13.4,156.5-21.2,227l55-12.9c13.4-3.2,23.9-13.5,27.3-26.7Z"/>
            <path class="cls-14" d="M2434.12,2497.4l-9.1,2.2-11.6-34c-4.5-13-17.6-21-31.2-19l-.6,.1c-12.9,1.9-22.9,11.8-24.9,24.5-1.5,9.7-3.3,21-4.8,30.1-1.6,10.2-9.2,18.5-19.3,21l-115.7,28.4c-4.7,1.1-8.5-3.7-6.3-8l29.5-56.9,55-12.9c13.3-3.1,23.8-13.4,27.2-26.6l4.8-18.8c6.4-25,26.3-44.4,51.6-50.1h0c23.9-5.4,47.1,11.7,49,36.2l6.4,83.8Z"/>
          </g>
          <path id="CONTOUR" class="cls-7" d="M2427.42,1971.1c16.1-194.1-83.8-308.6-83.8-308.6"/>
        </g>
        <g id="CHAIR">
          <path class="cls-10" d="M2829.12,1696.4h-435.9c-8.8,0-15.9-7.1-15.9-15.9h0c0-8.8,7.1-15.9,15.9-15.9h435.9c8.8,0,15.9,7.1,15.9,15.9h0c0,8.8-7.1,15.9-15.9,15.9Z"/>
          <g>
            <line class="cls-7" x1="2760.02" y1="1696.4" x2="2886.42" y2="2692.8"/>
            <line class="cls-7" x1="2462.42" y1="1696.4" x2="2336.02" y2="2692.8"/>
            <path class="cls-7" d="M2866.22,2533.5c-4.5-34.2-33.6-59.8-68.1-59.8h-373.3c-34.8,0-64.1,26-68.2,60.5"/>
          </g>
        </g>
        <path id="DRESS" class="cls-20" d="M2738.82,1664.6h-632l-13-65.8c-16.3-82.3,32.8-163.4,113.2-187.2l384.6-113.9-37.8-126.7s-74.7,3-91.6-49.8c-15.2-47.5,42.1-224.7,53.7-259.7,1.2-3.6,4.6-6,8.4-6h65.5c14.7,0,28.2,7.9,35.3,20.8l48.2,86.7c10.6,19.1,30.7,30.9,52.6,30.9,16.6,0,31.7-6.7,42.5-17.6,10.9-10.9,17.6-25.9,17.6-42.6v-49.9c0-17.9-13.1-33-30.7-35.7l-7.7-1.2,41.2,5.8c28.5,4,51.2,25.8,56.5,54.1l96,514.2c23.5,126.5-73.7,243.6-202.5,243.6Z"/>
        <g id="HEAD-5" data-name="HEAD">
          <path class="cls-13" d="M2785.92,883.6v49.9c0,16.6-6.7,31.7-17.6,42.6-10.9,10.9-25.9,17.6-42.6,17.6-21.8,0-42-11.8-52.6-30.9l-48.2-86.7c-7.1-12.8-20.6-20.8-35.3-20.8h8.6c13.9,0,25.2-11.3,25.2-25.2v-34.8c-5,.4-10.4,.4-16.1-.1-6.5-.6-11.4-6-11.3-12.5,.1-7.3,.3-17.4,.7-27.3h-8.7c-2.6,0-4.4-2.7-3.3-5.1l13.6-31h53.3c6.2,0,11.3,5.1,11.3,11.3v11.3c0,1.9,1.7,3.4,3.6,3.1l5.8-.9v-1.6c0-6.4,5.2-11.6,11.6-11.6h11.2c11.2,0,20.2,9,20.2,20.2v2.5c0,9.8-7,18-16.3,19.8l17,47.4c4.9,13.8,17.1,23.8,31.7,25.8l7.7,1.2c17.5,2.8,30.5,17.9,30.5,35.8Z"/>
          <path class="cls-16" d="M2779.62,662.3c0,22.1-17.9,40-40,40-2.6,0-5.2-.3-7.7-.8,4.1,8.7,5.7,18.8,3.9,29.1-2.6,14.7-11.6,26.9-23.8,33.9,2-3.2,3.2-6.9,3.2-10.9v-2.5c0-11.2-9.1-20.2-20.2-20.2h-11.2c-6.4,0-11.6,5.2-11.6,11.6v1.6l-5.8,.9c-1.9,.3-3.6-1.2-3.6-3.1v-11.3c0-6.2-5.1-11.3-11.3-11.3h-63.3v-4.9c0-22.6,18.3-40.9,40.9-40.9h58.7c4.9,0,9.7,.7,14.1,2.1-1.5-4.2-2.3-8.7-2.3-13.3,0-22.1,17.9-40,40-40,22.1,0,40,17.9,40,40Z"/>
          <path class="cls-4" d="M2609.92,722.8c5.8-1.3,11.8-.1,16.5,3.7"/>
          <ellipse class="cls-20" cx="2615.82" cy="738" rx="3.6" ry="5.6"/>
          <path class="cls-4" d="M2684.22,751.5c0-6.4,5.2-11.6,11.6-11.6"/>
          <path class="cls-4" d="M2677.12,771.8s-16.3,22.7-52.2,25.6"/>
        </g>
        <g id="HANDS-3" data-name="HANDS">
          <path id="RIGHT-3" data-name="RIGHT" class="cls-13" d="M2590.22,1293.1h-330.9c-9.1,0-12.5-12-4.8-16.8,39.4-24.4,130.2-58.7,299.2-105.3l36.5,122.1Z"/>
          <g id="LEFT-2" data-name="LEFT">
            <g id="GLASS">
              <path class="cls-20" d="M2482.32,736.8c0,2.1-1.5,4.2-4.2,6.1-9.7,6.7-35,11.4-64.7,11.4s-54.9-4.8-64.7-11.4c-2.8-1.9-4.3-3.9-4.3-6.1,0-9.7,30.9-17.5,68.9-17.5s69,7.8,69,17.5Z"/>
              <line class="cls-7" x1="2413.42" y1="843.1" x2="2413.42" y2="900.8"/>
              <circle class="cls-12" cx="2390.92" cy="748.1" r="15.7"/>
              <path class="cls-3" d="M2479.02,739.9l-35.2,82.1c-2.8,6.4-7.1,11.7-12.4,15.4-5.3,3.7-11.5,5.7-18,5.7-13,0-24.8-8.2-30.4-21.1l-35.2-82.1c9.9,6.8,35.5,11.6,65.5,11.6s55.8-4.8,65.7-11.6Z"/>
              <path class="cls-7" d="M2386.02,729.9s-7.6-24.7-26.8-28.7"/>
              <line class="cls-7" x1="2391.42" y1="900.8" x2="2434.22" y2="900.8"/>
            </g>
            <g id="HAND">
              <g>
                <path class="cls-13" d="M2462.72,783.6h-9.4c-4.8,0-7.6-4.2-6.3-9.4h0c1.3-5.2,6.2-9.4,11-9.4h9.4c4.8,0,7.6,4.2,6.3,9.4h0c-1.3,5.2-6.2,9.4-11,9.4Z"/>
                <path class="cls-13" d="M2458.12,802.4h-9.4c-4.8,0-7.6-4.2-6.3-9.4h0c1.3-5.2,6.2-9.4,11-9.4h9.4c4.8,0,7.6,4.2,6.3,9.4h0c-1.4,5.2-6.3,9.4-11,9.4Z"/>
                <path class="cls-13" d="M2453.42,821.3h-9.4c-4.8,0-7.6-4.2-6.3-9.4h0c1.3-5.2,6.2-9.4,11-9.4h9.4c4.8,0,7.6,4.2,6.3,9.4h0c-1.4,5.2-6.3,9.4-11,9.4Z"/>
                <path class="cls-13" d="M2448.72,840.1h-9.4c-4.8,0-7.6-4.2-6.3-9.4h0c1.3-5.2,6.2-9.4,11-9.4h9.4c4.8,0,7.6,4.2,6.3,9.4h0c-1.4,5.2-6.3,9.4-11,9.4Z"/>
                <line class="cls-7" x1="2452.72" y1="782.7" x2="2463.52" y2="782.7"/>
                <line class="cls-7" x1="2447.92" y1="803.7" x2="2458.22" y2="803.7"/>
                <line class="cls-7" x1="2442.52" y1="822.7" x2="2452.82" y2="822.7"/>
              </g>
              <path class="cls-13" d="M2382.82,827.4c1.2,6.6,1.1,17.9-.3,24.6l-38.8,186.5,118.9-152c15.4-19.6,38.9-31.1,63.8-31.1h19.7c33.9,0,61.3,27.5,61.3,61.3v22c0,20-7.4,39.3-20.8,54.2l-244.2,266.7c-18.9,21-45.8,34-74.1,34-56.6,0-92.7-47-92.7-100.4,0-9,1.2-18.2,3.8-27.4l104.8-318.4c30.8-79.4,72.7-79.4,72.7-79.4h47.7c1.6,0,2.9,1.4,2.8,3.1l-.4,4.6c-.7,8.3-7.7,14.7-16,14.7h-8.2c-6.8,.5-11.4,6.5-10.8,12.8l10.8,24.2Z"/>
              <path class="cls-7" d="M2358.12,834c10.6-6.4,17.1-17.9,17.1-30.3"/>
              <line class="cls-7" x1="2342.72" y1="1038.5" x2="2300.82" y2="1088.2"/>
              <path class="cls-7" d="M2386.22,1213.8l-44.7,48.8c-18.9,21-45.8,35-74.1,35"/>
            </g>
          </g>
        </g>
      </g>
      <g id="_1_MAN" data-name="1 MAN">
        <g id="BAG">
          <path class="cls-14" d="M1371.72,2692.8h-377.8c-30.3,0-54.9-24.6-54.9-54.9v-203.1c0-30.3,24.6-54.9,54.9-54.9h377.8c30.3,0,54.9,24.6,54.9,54.9v203.1c0,30.3-24.6,54.9-54.9,54.9Z"/>
          <path class="cls-7" d="M1426.62,2432h0c0,18.8-12.4,35.4-30.4,40.8l-213.4,63.5-213.4-63.5c-18.1-5.4-30.4-22-30.4-40.8h0c0-28.8,23.3-52.1,52.1-52.1h383.3c28.9,0,52.2,23.3,52.2,52.1Z"/>
          <rect class="cls-10" x="1176.52" y="2512.6" width="13.9" height="40.5"/>
          <path class="cls-7" d="M1251.92,2379.9h-159.3v-5.8c0-35.2,28.6-63.8,63.8-63.8h31.7c35.2,0,63.8,28.6,63.8,63.8v5.8Z"/>
          <path class="cls-12" d="M1276.72,2379.3v190.1l32.8,24.9,32.2-21.6v-192.8c0-22.2-18-40.2-40.2-40.2h-64.4c21.9,.1,39.6,17.8,39.6,39.6Z"/>
          <path class="cls-20" d="M1276.72,2379.3h0c0-21.8-17.7-39.5-39.5-39.5h0c-18.3,0-33.2,14.9-33.2,33.2v6.3h72.7Z"/>
          <g>
            <g>
              <g>
                <path class="cls-20" d="M1276.72,2559.1c2.8,0,5,2.2,5,5s-2.2,5-5,5v-10Z"/>
                <path class="cls-20" d="M1341.72,2559.1c-2.8,0-5,2.2-5,5s2.2,5,5,5v-10Z"/>
                <circle class="cls-20" cx="1299.22" cy="2564.1" r="5"/>
                <circle class="cls-20" cx="1319.22" cy="2564.1" r="5"/>
              </g>
              <g>
                <circle class="cls-20" cx="1288.02" cy="2550.1" r="5"/>
                <circle class="cls-20" cx="1309.22" cy="2550.1" r="5"/>
                <circle class="cls-20" cx="1309.22" cy="2581.1" r="5"/>
                <circle class="cls-20" cx="1330.52" cy="2550.1" r="5"/>
              </g>
            </g>
            <g>
              <g>
                <path class="cls-20" d="M1276.72,2528.1c2.8,0,5,2.2,5,5s-2.2,5-5,5v-10Z"/>
                <path class="cls-20" d="M1341.72,2528.1c-2.8,0-5,2.2-5,5s2.2,5,5,5v-10Z"/>
                <circle class="cls-20" cx="1299.22" cy="2533.1" r="5"/>
                <circle class="cls-20" cx="1319.22" cy="2533.1" r="5"/>
              </g>
              <g>
                <circle class="cls-20" cx="1288.02" cy="2519.1" r="5"/>
                <circle class="cls-20" cx="1309.22" cy="2519.1" r="5"/>
                <circle class="cls-20" cx="1330.52" cy="2519.1" r="5"/>
              </g>
            </g>
            <g>
              <g>
                <path class="cls-20" d="M1276.72,2497.1c2.8,0,5,2.2,5,5s-2.2,5-5,5v-10Z"/>
                <path class="cls-20" d="M1341.72,2497.1c-2.8,0-5,2.2-5,5s2.2,5,5,5v-10Z"/>
                <circle class="cls-20" cx="1299.22" cy="2502.1" r="5"/>
                <circle class="cls-20" cx="1319.22" cy="2502.1" r="5"/>
              </g>
              <g>
                <circle class="cls-20" cx="1288.02" cy="2488.1" r="5"/>
                <circle class="cls-20" cx="1309.22" cy="2488.1" r="5"/>
                <circle class="cls-20" cx="1330.52" cy="2488.1" r="5"/>
              </g>
            </g>
            <g>
              <g>
                <path class="cls-20" d="M1276.72,2466.1c2.8,0,5,2.2,5,5s-2.2,5-5,5v-10Z"/>
                <path class="cls-20" d="M1341.72,2466.1c-2.8,0-5,2.2-5,5s2.2,5,5,5v-10Z"/>
                <circle class="cls-20" cx="1299.22" cy="2471.1" r="5"/>
                <circle class="cls-20" cx="1319.22" cy="2471.1" r="5"/>
              </g>
              <g>
                <circle class="cls-20" cx="1288.02" cy="2457.1" r="5"/>
                <circle class="cls-20" cx="1309.22" cy="2457.1" r="5"/>
                <circle class="cls-20" cx="1330.52" cy="2457.1" r="5"/>
              </g>
            </g>
            <g>
              <g>
                <path class="cls-20" d="M1276.72,2435.1c2.8,0,5,2.2,5,5s-2.2,5-5,5v-10Z"/>
                <path class="cls-20" d="M1341.72,2435.1c-2.8,0-5,2.2-5,5s2.2,5,5,5v-10Z"/>
                <circle class="cls-20" cx="1299.22" cy="2440.1" r="5"/>
                <circle class="cls-20" cx="1319.22" cy="2440.1" r="5"/>
              </g>
              <g>
                <circle class="cls-20" cx="1288.02" cy="2426.1" r="5"/>
                <circle class="cls-20" cx="1309.22" cy="2426.1" r="5"/>
                <circle class="cls-20" cx="1330.52" cy="2426.1" r="5"/>
              </g>
            </g>
            <g>
              <g>
                <path class="cls-20" d="M1276.72,2404.1c2.8,0,5,2.2,5,5s-2.2,5-5,5v-10Z"/>
                <path class="cls-20" d="M1341.72,2404.1c-2.8,0-5,2.2-5,5s2.2,5,5,5v-10Z"/>
                <circle class="cls-20" cx="1299.22" cy="2409.1" r="5"/>
                <circle class="cls-20" cx="1319.22" cy="2409.1" r="5"/>
              </g>
              <g>
                <circle class="cls-20" cx="1288.02" cy="2395.1" r="5"/>
                <circle class="cls-20" cx="1309.22" cy="2395.1" r="5"/>
                <circle class="cls-20" cx="1330.52" cy="2395.1" r="5"/>
              </g>
            </g>
            <g>
              <g>
                <path class="cls-20" d="M1275.72,2372.1c3.5,0,6,2.2,6,5s-2.2,5-5,5l-1-10Z"/>
                <path class="cls-20" d="M1341.72,2379.9v2.1c-2.8,0-5-2.2-5-5,0-2.5,1.8-4.6,4.2-4.9,.6,2.6,.8,5.2,.8,7.8Z"/>
                <circle class="cls-20" cx="1299.22" cy="2377.1" r="5"/>
                <circle class="cls-20" cx="1319.22" cy="2377.1" r="5"/>
              </g>
              <g>
                <circle class="cls-20" cx="1288.02" cy="2363.1" r="5"/>
                <circle class="cls-20" cx="1309.22" cy="2363.1" r="5"/>
                <circle class="cls-20" cx="1330.52" cy="2363.1" r="5"/>
              </g>
            </g>
            <g>
              <circle class="cls-20" cx="1275.02" cy="2349.1" r="5"/>
              <circle class="cls-20" cx="1296.22" cy="2349.1" r="5"/>
              <circle class="cls-20" cx="1317.52" cy="2349.1" r="5"/>
            </g>
          </g>
        </g>
        <g id="LEGS-5" data-name="LEGS">
          <g id="SHOES-2" data-name="SHOES">
            <g>
              <path class="cls-14" d="M1152.82,2590.4c-107.4,36.7-181.4,7.2-181.4,7.2l-6.3-13.1,183.6-1.5,4.1,7.4Z"/>
              <path class="cls-16" d="M971.42,2597.6s-34.2,11.2-34,95.2l304.1-2.1-.2-3.5c-.6-11.7-6.9-22.3-17-28.3-22.5-13.2-46.6-35.2-71.5-68.6,0,.1-92.2,37.6-181.4,7.3Z"/>
              <line class="cls-1" x1="937.42" y1="2690.8" x2="1241.42" y2="2688.7"/>
              <line class="cls-1" x1="1136.42" y1="2619.1" x2="1176.42" y2="2607.7"/>
              <line class="cls-1" x1="1148.42" y1="2635.1" x2="1188.42" y2="2623.7"/>
            </g>
            <g>
              <path class="cls-14" d="M560.62,2323.3v19.4s63.7,52.4,177.2,51.8l7.6-17.8-184.8-53.4Z"/>
              <path class="cls-16" d="M560.62,2342.7s-39.2,9.3-65.7,88.9l289,94.7,1-3.4c3.2-11.2,.5-23.4-7.1-32.2-17.1-19.7-45.1-58.5-39.9-96.3-.2,.1-102.3,5.4-177.3-51.7Z"/>
              <line class="cls-1" x1="494.92" y1="2431.6" x2="783.92" y2="2526.3"/>
              <line class="cls-1" x1="720.62" y1="2442.5" x2="756.92" y2="2444.3"/>
              <line class="cls-1" x1="710.62" y1="2421.5" x2="746.92" y2="2423.3"/>
            </g>
          </g>
          <g id="LEGS-6" data-name="LEGS">
            <path class="cls-20" d="M252.12,1651.8c15.4,8.1,32.9,12.8,51.5,12.8h335.4l509.3,918.4-231.1,1c-46.8-43.5-113.8-130.7-170.7-210.1L252.12,1651.8Z"/>
            <path class="cls-20" d="M303.52,1664.6h391.6c13.5,0,21.3,15.3,13.4,26.2-49.7,69-175.6,294.6-148,632.5l184.8,53.4,294-704.9c47.7-115.6-18.7-246.5-140.1-276.4l-313.5-77.2H193.52v236.3c0,60.8,49.2,110.1,110,110.1Z"/>
            <line class="cls-8" x1="734.32" y1="2396.7" x2="871.32" y2="2081.6"/>
            <path class="cls-8" d="M705.62,1690.8c-39.6,55-126.1,196.3-145,422.2"/>
          </g>
        </g>
        <g id="JACKET">
          <path class="cls-12" d="M547.32,732.2l167.4,48.6c62.4,18.1,105.3,75.3,105.3,140.3v143.5c0,15.5,11.7,28.5,27.1,30.2l247,27v175.8h-362.5c-66.6,0-120.6-54-120.6-120.6l10-142.8v290l62,17.9s-93.9,354.3-575,322.5l41.2-367h-34.8c-73.1,0-127.4-67.6-111.7-139l59-268.1c11.6-52.9,51.6-95,103.8-109.4l177.4-48.9h204.4Z"/>
          <g class="cls-21">
            <g>
              <polygon class="cls-14" points="1094.12 1121.8 1094.12 1297.6 1092.12 1297.6 1092.12 1121.6 1094.12 1121.8"/>
              <path class="cls-14" d="M2.02,1162.2v42.4c-1.8-9.6-2.4-19.5-1.7-29.7,.1-1.3,.2-2.7,.4-4,.3-2.9,.7-5.8,1.3-8.7Z"/>
              <path class="cls-14" d="M47.62,954.8v321.3c-1.4-1-2.7-2-4-3v-300.1l4-18.2Z"/>
              <path class="cls-14" d="M93.12,827.3v468.4c-1.3-.2-2.7-.5-4-.8v-462.6c1.3-1.8,2.7-3.4,4-5Z"/>
              <g>
                <path class="cls-14" d="M138.72,791.5v506.1h-4v-504c1.4-.8,2.7-1.5,4-2.1Z"/>
                <polygon class="cls-14" points="138.72 1391 138.72 1664.6 134.72 1664.6 134.72 1426.6 137.42 1402.9 137.82 1398.9 138.72 1391"/>
              </g>
              <polygon class="cls-14" points="184.32 776 184.32 1664.6 180.32 1664.6 180.32 777.1 184.32 776"/>
              <polygon class="cls-14" points="229.92 763.4 229.92 1664.6 225.92 1664.6 225.92 764.5 229.92 763.4"/>
              <path class="cls-14" d="M275.52,750.8v908.4c-1.3,.2-2.7,.4-4,.6V751.9l4-1.1Z"/>
              <path class="cls-14" d="M321.12,738.2v912.8c-1.3,.3-2.7,.6-4,.8V739.3l4-1.1Z"/>
              <path class="cls-14" d="M366.72,732.4v906.8c-1.3,.4-2.7,.8-4,1.2V732.4h4Z"/>
              <path class="cls-14" d="M412.32,732.4v890.7c-1.3,.5-2.7,1.1-4,1.6V732.4h4Z"/>
              <path class="cls-14" d="M457.92,732.4v869.8c-1.3,.7-2.7,1.4-4,2.1V732.5h4v-.1Z"/>
              <path class="cls-14" d="M503.42,732.4v842.7c-1.3,.9-2.7,1.8-4,2.6V732.3h4v.1Z"/>
              <path class="cls-14" d="M549.02,732.4v808c-1.3,1.1-2.6,2.3-4,3.4V732.4h4Z"/>
              <path class="cls-14" d="M594.62,746v749.2c-1.3,1.5-2.6,3-4,4.5V744.8l4,1.2Z"/>
              <g>
                <path class="cls-14" d="M640.22,759.2v496.4c-1.4-1.6-2.7-3.2-4-4.9v-492.6l4,1.1Z"/>
                <path class="cls-14" d="M640.22,1329.7v104c-1.3,2.1-2.6,4.2-4,6.3v-111.5l4,1.2Z"/>
              </g>
              <g>
                <path class="cls-14" d="M683.02,1342.1s-.4,1.4-1.2,4v-4.3l1.2,.3Z"/>
                <path class="cls-14" d="M685.82,772.5v516.1c-1.4-.5-2.7-1.1-4-1.7V771.4l4,1.1Z"/>
              </g>
              <path class="cls-14" d="M731.42,786.8v510.8c-1.3,0-2.7,0-4-.1V785.2c1.3,.5,2.7,1.1,4,1.6Z"/>
              <path class="cls-14" d="M822.62,1076.8v220.8h-4v-396.9c0,.2,.1,.4,.1,.7,.9,6.5,1.3,13.1,1.3,19.8v143.5c0,4.2,.9,8.4,2.6,12.1Z"/>
              <polygon class="cls-14" points="913.72 1102.1 913.72 1297.6 909.72 1297.6 909.72 1101.7 913.72 1102.1"/>
              <polygon class="cls-14" points="1004.92 1112.1 1004.92 1297.6 1000.92 1297.6 1000.92 1111.6 1004.92 1112.1"/>
              <polygon class="cls-14" points="868.12 1097.1 868.12 1297.6 864.12 1297.6 864.12 1096.7 868.12 1097.1"/>
              <path class="cls-14" d="M777.02,817.6v480h-4v-483.8c1.3,1.2,2.7,2.5,4,3.8Z"/>
              <polygon class="cls-14" points="959.32 1107.1 959.32 1297.6 955.32 1297.6 955.32 1106.6 959.32 1107.1"/>
              <polygon class="cls-14" points="1050.52 1117.1 1050.52 1297.6 1046.52 1297.6 1046.52 1116.6 1050.52 1117.1"/>
            </g>
            <g>
              <path class="cls-14" d="M403.02,1626.8c-3.6,1.4-7.2,2.7-10.8,4H111.82l.4-4H403.02Z"/>
              <path class="cls-14" d="M494.22,1581.2c-2.1,1.3-4.2,2.7-6.4,4H116.92l.5-4H494.22Z"/>
              <path class="cls-14" d="M554.52,1535.6c-1.5,1.3-3,2.7-4.5,4H122.02l.4-4h432.1Z"/>
              <path class="cls-14" d="M599.12,1490c-1.1,1.3-2.3,2.7-3.4,4H127.22l.4-4h471.5Z"/>
              <path class="cls-14" d="M633.42,1444.4c-.9,1.3-1.8,2.7-2.7,4H132.32l.5-4h500.6Z"/>
              <path class="cls-14" d="M659.82,1398.9c-.7,1.3-1.3,2.7-2,4H137.42l.5-4H659.82Z"/>
              <path class="cls-14" d="M679.42,1353.3c-.4,1.2-.9,2.6-1.4,4H142.52l.5-4H679.42Z"/>
              <polygon class="cls-14" points="621.02 1307.7 621.02 1311.7 147.62 1311.7 148.12 1307.7 621.02 1307.7"/>
              <g>
                <path class="cls-14" d="M621.02,1262.1v4H35.62c-1.4-1.3-2.7-2.6-4-4H621.02Z"/>
                <path class="cls-14" d="M1094.12,1262.1v4h-443.8c-1.4-1.3-2.8-2.6-4.2-4h448Z"/>
              </g>
              <path class="cls-14" d="M1094.12,1216.5v4H6.22c-.5-1.3-.9-2.7-1.3-4H1094.12Z"/>
              <path class="cls-14" d="M1094.12,1170.9v4H.32c.1-1.3,.2-2.7,.4-4H1094.12Z"/>
              <polygon class="cls-14" points="1094.12 1125.3 1094.12 1129.3 9.12 1129.3 10.02 1125.3 1094.12 1125.3"/>
              <path class="cls-14" d="M826.82,1083.7H19.22l.9-4H824.12c.7,1.4,1.7,2.8,2.7,4Z"/>
              <polygon class="cls-14" points="820.02 1034.2 820.02 1038.2 29.22 1038.2 30.12 1034.2 820.02 1034.2"/>
              <polygon class="cls-14" points="820.02 943 820.02 947 49.32 947 50.22 943 820.02 943"/>
              <path class="cls-14" d="M804.62,855.8H74.12c.7-1.4,1.4-2.7,2.1-4H802.42c.8,1.3,1.5,2.6,2.2,4Z"/>
              <polygon class="cls-14" points="658.72 764.6 225.52 764.6 225.92 764.5 229.92 763.4 240.02 760.6 645.02 760.6 658.72 764.6"/>
              <path class="cls-14" d="M818.62,901.4H59.32l.9-4H818.62v3.3c0,.2,0,.5,0,.7Z"/>
              <polygon class="cls-14" points="820.02 988.6 820.02 992.6 39.22 992.6 40.12 988.6 820.02 988.6"/>
              <path class="cls-14" d="M769.02,810.2H110.32c1.6-1.4,3.3-2.7,5-4H764.12c1.6,1.3,3.3,2.6,4.9,4Z"/>
            </g>
          </g>
          <path class="cls-11" d="M547.32,732.2h-204.4l17-26c2.6-4,7.1-6.5,12-6.5h147c5.7,0,10.9,3,13.8,7.9l14.6,24.6Z"/>
          <g>
            <line class="cls-7" x1="149.22" y1="1297.6" x2="172.02" y2="1010"/>
            <line class="cls-7" x1="247.52" y1="1665.6" x2="262.82" y2="1467.4"/>
            <path class="cls-7" d="M621.02,1084.2v109.8c0,57.2,46.4,103.6,103.6,103.6h389.4"/>
            <circle class="cls-7" cx="1045.42" cy="1268.1" r="12.4"/>
            <circle class="cls-7" cx="1004.42" cy="1268.1" r="12.4"/>
            <path class="cls-7" d="M622.02,1172.5c33.2-10.3,74.1,9.1,96.5,47.9,14.8,25.7,18.2,54.1,11.5,77.2"/>
            <path class="cls-7" d="M4.02,1169.5c33.2-10.3,74.1,9.1,96.5,47.9,14.8,25.7,18.2,54.1,11.5,77.2"/>
          </g>
        </g>
        <g id="CHAIR-2" data-name="CHAIR">
          <g>
            <line class="cls-9" x1="571.32" y1="1696.4" x2="697.82" y2="2692.8"/>
            <line class="cls-9" x1="273.82" y1="1696.4" x2="147.32" y2="2692.8"/>
            <path class="cls-9" d="M677.52,2533.5c-4.5-34.2-33.6-59.8-68.1-59.8H236.12c-34.8,0-64.1,26-68.2,60.5"/>
          </g>
          <path class="cls-10" d="M640.52,1696.4H204.62c-8.8,0-15.9-7.1-15.9-15.9h0c0-8.8,7.1-15.9,15.9-15.9h435.9c8.8,0,15.9,7.1,15.9,15.9h0c0,8.8-7.1,15.9-15.9,15.9Z"/>
        </g>
        <g id="CUP">
          <path class="cls-16" d="M1310.72,1060.1l-31.5,237.5h-87l-31.5-237.5c5.6,20.7,37.1,36.6,75,36.6s69.4-15.9,75-36.6Z"/>
          <path class="cls-20" d="M1311.62,1053.5l-.9,6.6h0c-5.6,20.7-37,36.6-75,36.6s-69.4-15.9-75-36.6h0l-.9-6.6c0-23.8,34-43.2,75.9-43.2,41.9,0,75.9,19.3,75.9,43.2Z"/>
          <path class="cls-20" d="M1159.82,1053.5l.9,6.6c-.6-2.2-.9-4.4-.9-6.6Z"/>
          <path class="cls-20" d="M1311.62,1053.5c0,2.2-.3,4.4-.9,6.6l.9-6.6Z"/>
        </g>
        <g id="HAND-2" data-name="HAND">
          <g>
            <path class="cls-10" d="M1147.22,1131h97.2v5.8c0,9.3-5.6,17.7-14.2,21.3l-24.6,10.3h0c1,8.8,8.5,15.4,17.3,15.4h28.5c12.1,0,23.4-6.3,29.7-16.7l22-36.1h0c9.4,0,17,7.6,17,17v79c0,39-31.6,70.6-70.6,70.6h-102.4v-166.6h.1Z"/>
            <path class="cls-7" d="M1320.22,1199c0,39-31.6,70.6-70.6,70.6h-21.4"/>
            <path class="cls-7" d="M1320.22,1173c0,39-31.6,70.6-70.6,70.6h-21.4"/>
            <path class="cls-7" d="M1319.22,1145c0,39-30.6,70.6-69.6,70.6h-22.4"/>
          </g>
          <rect class="cls-10" x="1094.12" y="1131" width="53.1" height="166.6"/>
        </g>
        <g id="HEAD-6" data-name="HEAD">
          <polygon id="NECK-3" data-name="NECK" class="cls-10" points="385.72 699.7 412.92 643.6 520.42 643.6 520.02 699.7 385.72 699.7"/>
          <path id="HAIR-3" data-name="HAIR" class="cls-20" d="M531.42,644.1l6.8,25.5c2.1,7.8-3.8,15.5-11.9,15.5h-41.5c-16.8,0-30.5-13.6-30.5-30.5v-28c0-11.1-9-20.2-20.2-20.2h-3.5l-2.6-21.8c-1.3-10.9,2.8-21.8,11-29.2h0c8.8-7.9,21.1-10.7,32.5-7.2,27.3,8.3,77.2,23.5,91.6,28.1,12.9,4.1-2.6,28.3-22.4,33.4l-9.3,34.4Z"/>
          <g id="EAR">
            <path class="cls-10" d="M456.52,621.7v30.4h-29.8c-14.4,0-26.1-11.7-26.1-26.1h0c0-14.4,11.7-26.1,26.1-26.1h7.9c12.2-.1,21.9,9.7,21.9,21.8Z"/>
            <path class="cls-7" d="M428.02,613.8c8,0,14.5,6.5,14.5,14.5"/>
          </g>
          <g id="FACE-3" data-name="FACE">
            <path class="cls-10" d="M539.92,596.6l2.9,43.2c.2,2.3-1.7,4.2-4,4.2h-37.8c-14.7,0-27-10.9-28.8-25.5l-2.9-24c-1.7-13.7,9-25.9,22.9-25.9h0c3.4,0,6.8,.8,9.9,2.2l30,14.2c4.5,2.3,7.4,6.7,7.8,11.6Z"/>
            <path class="cls-20" d="M518.02,600.3l-14.4,1c-2.6,.2-4.9-1.8-5.1-4.4h0c-.2-2.6,1.8-4.9,4.4-5.1l14.4-1c2.6-.2,4.9,1.8,5.1,4.4h0c.2,2.6-1.8,4.9-4.4,5.1Z"/>
            <ellipse class="cls-20" cx="512.12" cy="611.9" rx="3.5" ry="5.5"/>
          </g>
        </g>
      </g>
      <g>
        <path class="cls-20" d="M1175.82,1448.5v-6.1h56.2v6.1l-26.3,2.2h-3.5l-26.4-2.2Zm28.1,130.9v8.3h-28.1v-6.1l26.3-2.2h1.8Zm-6.4-136.9h12.8c-.5,22.1-.5,44.5-.5,71.6v11.2c0,18,0,40.4,.5,62.3h-12.8c.5-22.1,.5-44.5,.5-66.8v-11.7c0-22.4,0-44.8-.5-66.6Zm83.5,107.9l-2.2,37.3h-75v-7.2h69.5l-6.6,7.2,5.9-37.3h8.4Z"/>
        <path class="cls-20" d="M1315.92,1587.7c.4-9.7,.6-31.9,.6-45.2v-10.4c0-12.7-.1-23.5-.5-34.9l-19.2-.8v-5.6l28.1-6.8,2.6,1.6-.5,26.6v30.2c0,13.4,.2,35.5,.6,45.2h-11.7v.1Zm28.1-5.7v5.6h-46.1v-5.6l22.4-2.5h2.9l20.8,2.5Zm-33.1-138.9c0-5.9,4.5-9.6,9.9-9.6s9.9,3.7,9.9,9.6-4.5,9.6-9.9,9.6-9.9-3.8-9.9-9.6Z"/>
        <path class="cls-20" d="M1402.22,1583c6.1,0,10.2-1.6,15.7-4.8l2.9,4.2c-5.1,5.2-12.3,8-21.2,8-15.4,0-22.5-8.6-22.2-25.6,0-4.5,.2-8.7,.2-15.5v-55.6h-21.4v-6.3l27.5-2-6.2,4.6,4-34.8h7.9l-1.2,36.8v72.5c0,13,5,18.5,14,18.5Zm16.6-96.9v7.6h-35.9v-7.6h35.9Z"/>
        <path class="cls-20" d="M1472.82,1583c6.1,0,10.2-1.6,15.7-4.8l2.9,4.2c-5.1,5.2-12.3,8-21.2,8-15.4,0-22.5-8.6-22.2-25.6,0-4.5,.2-8.7,.2-15.5v-55.6h-21.4v-6.3l27.5-2-6.2,4.6,4-34.8h7.9l-1.2,36.8v72.5c.1,13,5.1,18.5,14,18.5Zm16.7-96.9v7.6h-35.9v-7.6h35.9Z"/>
        <path class="cls-20" d="M1552.52,1582v5.6h-50.7v-5.6l24-2.5h2.9l23.8,2.5Zm-22.2-154.7l3,1.7-.6,30.6v82.9c0,14.1,.2,33.3,.6,45.2h-11.9c.4-11.9,.6-31.2,.6-45.2v-103.2l-18.9-.9v-5.6l27.2-5.5Z"/>
        <path class="cls-20" d="M1656.52,1523.5c0,5.1-.5,9.1-1.4,12.2l-79.5-.1v-6.4l62.4,.1c6,0,7.7-3.3,7.7-9.5,0-15.6-10.8-30.1-28.9-30.1-19.3,0-35.2,17.9-35.2,44.7,0,32.6,17.6,47.1,38.5,47.1,13.8,0,24.1-5.4,32.3-14.4l3.4,3c-8.3,12.6-21.9,20.3-38.2,20.3-25.8,0-47.6-17.7-47.6-53.4,0-32.8,22.1-53.8,47.2-53.8,23.9,.1,39.3,17.2,39.3,40.3Z"/>
        <path class="cls-20" d="M1730.12,1448.5v-6.1h56.2v6.1l-26.3,2.2h-3.5l-26.4-2.2Zm28.1,130.9v8.3h-28.1v-6.1l26.3-2.2h1.8Zm-6.4-136.9h12.8c-.5,22.1-.5,44.5-.5,71.6v11.2c0,18,0,40.4,.5,62.3h-12.8c.5-22.1,.5-44.5,.5-66.8v-11.7c.1-22.4,.1-44.8-.5-66.6Zm83.5,107.9l-2.2,37.3h-75v-7.2h69.5l-6.6,7.2,5.9-37.3h8.4Z"/>
        <path class="cls-20" d="M1940.12,1523.5c0,5.1-.5,9.1-1.4,12.2l-79.5-.1v-6.4l62.4,.1c6,0,7.7-3.3,7.7-9.5,0-15.6-10.8-30.1-28.9-30.1-19.3,0-35.2,17.9-35.2,44.7,0,32.6,17.6,47.1,38.5,47.1,13.8,0,24.1-5.4,32.3-14.4l3.4,3c-8.3,12.6-21.9,20.3-38.2,20.3-25.8,0-47.6-17.7-47.6-53.4,0-32.8,22.1-53.8,47.2-53.8,23.9,.1,39.3,17.2,39.3,40.3Z"/>
        <path class="cls-20" d="M1977.22,1587.7c.4-9.7,.6-31.9,.6-45.2v-10.4c0-13.8-.2-24.9-.6-34.9l-18.9-.8v-5.6l26.2-6.8,2.6,1.6,1.3,23.7v33.2c0,13.4,.2,35.5,.6,45.2h-11.8Zm28.3-5.7v5.6h-46.1v-5.6l22.4-2.5h2.9l20.8,2.5Zm47.9-60.9v21.3c0,13.8,.2,35.5,.6,45.2h-11.9c.4-9.7,.6-31.4,.6-45.2v-20.8c0-21-7.5-28.7-19-28.7-10.2,0-21.5,4.3-37,21.1h-3.8v-6.6h6.8l-5,2.1c13.9-17.4,28.4-26.3,42.5-26.3,16.5,.1,26.2,10.3,26.2,37.9Zm-3.7,58.4l20.8,2.5v5.6h-46.1v-5.6l22.4-2.5h2.9Zm68.7-59.4v22.3c0,13.8,.2,35.5,.6,45.2h-11.9c.4-9.7,.6-31.4,.6-45.2v-20.9c0-21.3-7.5-28.5-19.8-28.5-9.9,0-21.9,4.1-36.3,19.7h-4v-5.6h6.9l-5.3,1.1c13.2-17,27.9-24.9,42.3-24.9,16.9,0,26.9,10.1,26.9,36.8Zm-3.7,59.4l20.8,2.5v5.6h-46.1v-5.6l22.4-2.5h2.9Z"/>
        <path class="cls-20" d="M2153.52,1537.3c0-36.4,24-54,47.7-54s47.7,17.6,47.7,54-24.1,53.2-47.7,53.2c-23.8,0-47.7-16.8-47.7-53.2Zm83.4,0c0-29.8-13.9-47.5-35.7-47.5s-35.7,17.8-35.7,47.5,13.7,46.7,35.7,46.7c21.8-.1,35.7-17,35.7-46.7Z"/>
        <path class="cls-20" d="M2286.52,1587.7c.4-9.7,.6-31.9,.6-45.2v-10.4c0-13.8-.2-24.9-.6-34.9l-18.9-.8v-5.6l26.2-6.8,2.6,1.6,1.3,24v32.9c0,13.4,.2,35.5,.6,45.2h-11.8Zm28.2-5.7v5.6h-46.1v-5.6l22.4-2.5h2.9l20.8,2.5Zm50.7-60.9v21.3c0,13.8,.2,35.5,.6,45.2h-11.9c.4-9.7,.6-31.4,.6-45.2v-20.8c0-21.2-7.3-28.7-20.1-28.7-9.9,0-22.8,4.3-38.5,21.1h-3.8v-6.6h6.8l-5.1,2.1c14.2-17.9,30.4-26.3,44.7-26.3,17.1,.1,26.7,10.3,26.7,37.9Zm-3.8,58.4l20.8,2.5v5.6h-46.1v-5.6l22.4-2.5h2.9Z"/>
      </g>
      <g id="CHAIR_BAG" data-name="CHAIR &amp;amp; BAG">
        <g>
          <path class="cls-1" d="M1847.02,1469.5h-142.7v-1c0-36.9,30-66.9,66.9-66.9h8.9c36.9,0,66.9,30,66.9,66.9v1h0Z"/>
          <path class="cls-20" d="M1909.12,1664.6h-311.1l38.4-189.2c1.3-6.4,6.9-10.9,13.4-10.9h259.4v200.1h-.1Z"/>
          <rect class="cls-14" x="1729.12" y="1435.6" width="189.9" height="189.9"/>
          <path class="cls-2" d="M1889.62,1469.5h-142.7v-1c0-36.9,30-66.9,66.9-66.9h8.9c36.9,0,66.9,30,66.9,66.9v1h0Z"/>
          <path class="cls-16" d="M1985.32,1664.6h-305.1v-186.5c0-7.5,6.1-13.6,13.6-13.6h239.7c6.5,0,12.1,4.6,13.4,10.9l38.4,189.2Z"/>
        </g>
        <g>
          <g>
            <line class="cls-9" x1="1930.52" y1="1696.4" x2="2056.92" y2="2692.8"/>
            <line class="cls-9" x1="1632.92" y1="1696.4" x2="1506.52" y2="2692.8"/>
            <path class="cls-9" d="M2036.72,2533.5c-4.5-34.2-33.6-59.8-68.1-59.8h-373.3c-34.8,0-64.1,26-68.2,60.5"/>
          </g>
          <path class="cls-10" d="M1999.62,1696.4h-435.9c-8.8,0-15.9-7.1-15.9-15.9h0c0-8.8,7.1-15.9,15.9-15.9h435.9c8.8,0,15.9,7.1,15.9,15.9h0c0,8.8-7.1,15.9-15.9,15.9Z"/>
        </g>
      </g>
    </g>
  </g>
</svg>