<?xml version="1.0" encoding="utf-8"?>
<!-- Generator: Adobe Illustrator 27.0.0, SVG Export Plug-In . SVG Version: 6.00 Build 0)  -->
<svg version="1.1" id="Слой_1" xmlns="http://www.w3.org/2000/svg" xmlns:xlink="http://www.w3.org/1999/xlink" x="0px" y="0px"
	 viewBox="0 0 5000 3500" style="enable-background:new 0 0 5000 3500;" xml:space="preserve">
<style type="text/css">
	.st0{fill:#E0F1F0;}
	.st1{fill:none;stroke:#573240;stroke-width:5;stroke-linecap:round;stroke-miterlimit:10;}
	.st2{fill:#F6ACC1;}
	.st3{fill:#573240;}
	.st4{fill:none;stroke:#F1B104;stroke-width:5;stroke-linecap:round;stroke-miterlimit:10;}
	.st5{fill:#FF6E00;}
	.st6{fill:#FFFFFF;stroke:#573240;stroke-width:5;stroke-linecap:round;stroke-miterlimit:10;}
	.st7{fill:none;stroke:#573240;stroke-width:4;stroke-linecap:round;stroke-linejoin:round;stroke-miterlimit:10;}
	.st8{fill:none;stroke:#573240;stroke-width:4;stroke-linecap:round;stroke-miterlimit:10;}
	.st9{fill:#96CFCE;}
	.st10{fill:#A9D8D5;}
	.st11{fill:#FFFFFF;}
	.st12{fill:#F1B104;}
	.st13{fill:#FDE5E3;}
	.st14{fill:none;stroke:#FFFFFF;stroke-width:5;stroke-linecap:round;stroke-miterlimit:10;}
	.st15{fill:none;stroke:#FF6E00;stroke-width:4;stroke-miterlimit:10;}
	.st16{fill:none;stroke:#573240;stroke-width:5;stroke-linecap:round;stroke-linejoin:round;stroke-miterlimit:10;}
	.st17{fill:none;stroke:#573240;stroke-width:6;stroke-linecap:round;stroke-miterlimit:10;}
	.st18{opacity:0.29;}
	.st19{fill:#F1B104;stroke:#573240;stroke-width:5;stroke-linecap:round;stroke-miterlimit:10;}
	.st20{fill:none;stroke:#FF6E00;stroke-width:6;stroke-miterlimit:10;}
</style>
<g>
	<g id="LAMPS">
		<g>
			<polygon class="st0" points="730.6,1690.9 1417.9,723.9 1829.9,723.9 2517.3,1690.9 			"/>
			<g>
				<line class="st1" x1="1620.5" y1="394.4" x2="1620.5" y2="635.3"/>
				<path class="st2" d="M1829.7,725h-412.2c0.5-2.1,1.1-4.7,1.7-7.5c2.7-11.5,11.8-20.5,23.4-22.9l61.6-5.6
					c25.3-2.3,48.1-16.4,61.4-38l2.3-3.6c6.4-7.7,15.9-12.1,25.9-12.1h59.8c10,0,19.5,4.4,25.9,12.1l2.3,3.6
					c13.4,21.6,36.1,35.7,61.4,38l61.6,5.6c11.6,2.4,20.7,11.4,23.4,22.9C1828.6,720.3,1829.2,722.9,1829.7,725z"/>
				<ellipse class="st3" cx="1623.7" cy="723.9" rx="206.2" ry="17.1"/>
				<circle class="st4" cx="1620.5" cy="750.9" r="30.5"/>
			</g>
		</g>
		<g>
			<polygon class="st0" points="2164.9,1690.9 2852.3,723.9 3264.3,723.9 3951.6,1690.9 			"/>
			<g>
				<line class="st1" x1="3054.9" y1="394.4" x2="3054.9" y2="635.3"/>
				<path class="st2" d="M3264,725h-412.2c0.5-2.1,1.1-4.7,1.7-7.5c2.7-11.5,11.8-20.5,23.4-22.9l61.6-5.6
					c25.3-2.3,48.1-16.4,61.4-38l2.3-3.6c6.4-7.7,15.9-12.1,25.9-12.1h59.8c10,0,19.5,4.4,25.9,12.1l2.3,3.6
					c13.4,21.6,36.1,35.7,61.4,38l61.6,5.6c11.6,2.4,20.7,11.4,23.4,22.9C3262.9,720.3,3263.5,722.9,3264,725z"/>
				<ellipse class="st3" cx="3058" cy="723.9" rx="206.2" ry="17.1"/>
				<circle class="st4" cx="3054.9" cy="750.9" r="30.5"/>
			</g>
		</g>
	</g>
	<g id="BARMAN">
		<g id="HEAD_7_">
			<path id="HAIR_4_" class="st5" d="M2220.3,930.9c-12.7,0-23-11.1-23-24.8s10.3-24.8,23-24.8c4.8,0,9.2,1.6,12.9,4.3
				c1-2.2,2.4-4.1,4.3-5.6c8.4-7,22.5-3.9,31.5,6.9c2.5,3,4.3,6.2,5.4,9.5c9.8-7.4,23.1-8.5,33.6-1.8c13.7,8.7,19.5,29.6,8.1,46.8
				L2220.3,930.9z"/>
			<polygon id="NECK_3_" class="st6" points="2311,1041.8 2311,978.6 2223.8,978.6 2200.7,1050.3 2258.3,1144.4 			"/>
			<path id="HEAD_6_" class="st6" d="M2310,941.5c10.5,0,18.9,8.5,18.9,18.9c0,5.2-2.1,10-5.5,13.4s-8.2,5.5-13.4,5.5h-18l-2.2,8.9
				c-3,12.1-14,20.6-26.5,20.6h-47c-10.2,0-17.6-9.6-15.1-19.5L2218,925c3.4-13,15.1-22.1,28.6-22.1h17.3
				c12.1,0,21.6,10.3,20.6,22.4l-0.3,3.6c-0.6,6.8,4.8,12.6,11.6,12.6H2310z"/>
			<g id="FACE_2_">
				<path class="st1" d="M2303.9,961.4c0-4.5,3.7-8.2,8.2-8.2"/>
				<path class="st7" d="M2240.1,980.8c5.8,2.5,12.6-0.2,15.1-6l4,4.7"/>
				<ellipse class="st3" cx="2222.5" cy="949.6" rx="3.4" ry="5.3"/>
				<ellipse class="st3" cx="2257.8" cy="949.6" rx="3.4" ry="5.3"/>
				<path class="st8" d="M2228.1,930.6c2.7,0,4.9,2.2,4.9,4.9v28.8c0,3,2.4,5.4,5.4,5.4h3.3"/>
				<path class="st5" d="M2231.7,937.1h-17.3c-1.8,0-3.2-1.4-3.2-3.2v-2.8c0-1.8,1.4-3.2,3.2-3.2h17.3c1.8,0,3.2,1.4,3.2,3.2v2.8
					C2234.9,935.7,2233.5,937.1,2231.7,937.1z"/>
				<path class="st5" d="M2269.7,937.1h-16.9c-1.8,0-3.2-1.4-3.2-3.2v-2.8c0-1.8,1.4-3.2,3.2-3.2h16.9c1.8,0,3.2,1.4,3.2,3.2v2.8
					C2272.9,935.7,2271.4,937.1,2269.7,937.1z"/>
			</g>
		</g>
		<g id="LEGS_14_">
			<path class="st9" d="M2017.9,2983.5c0,0,113.9,23.9,216.3,7.4c0,0,122.5-298.8,41.5-629l24.2-344.8c0,0,147.9,617.5,133.6,966.4
				c0,0,126.9,21.4,224.8,7.8c0,0,52.3-414.8-50.6-733c0,0-56.6-277.3-91.6-558.2h-467.5C2044.8,1977.8,2049.8,2915.2,2017.9,2983.5
				z"/>
			<g>
				<path class="st3" d="M2250.8,3079.6h-73.1c-1.5-8.7-8.3-15.3-16.5-15.3s-15.1,6.6-16.5,15.3h-196.1c-7.5,0-10.3-9.7-4.1-13.8
					c28.4-18.5,62.5-49.9,73.4-82.3c0,0,116.1,21.7,215,7.5C2232.9,2991,2257.4,2995.8,2250.8,3079.6z"/>
			</g>
			<g>
				<path class="st3" d="M2676.3,3079.6h-73.1c-1.5-8.7-8.3-15.3-16.5-15.3s-15.1,6.6-16.5,15.3h-206.1c-7.5,0-10.3-9.7-4.1-13.8
					c28.4-18.5,62.5-49.9,73.4-82.3c0,0,126.1,21.7,225,7.5C2658.5,2991,2683,2995.8,2676.3,3079.6z"/>
			</g>
		</g>
		<path id="SHIRT_1_" class="st10" d="M2483,1333.9l59.3,77.2l-50.3,7l37.8,170.6h77c112.4,0,184.3-119.6,131.5-218.9L2627,1160.2
			c-27.9-43.7-74.2-72.5-125.8-78l-165.1-20.1l-11.8-19.2c-2.7-4.4-7.5-7-12.6-7l-29,0.3c-7,0.1-12.8,5.4-13.7,12.3l-9.5,75.5
			l-17.1-76.1c-1.4-6.4-7.1-11-13.7-11h-26.3c-4.3,0-8.4,1.9-11.2,5.2l-17.6,20.8l-80.4,3.5c-18,0.8-35.9,3.6-53.2,8.3L1663,1179v34
			c0,79.8,4.7,144.5,84.5,144.5h283.4c15.1,0,27,12.9,25.9,27.9l-1.9,25.1l417.3-2.6l-13.8-62.4
			C2455,1331.1,2473.7,1322.2,2483,1333.9z"/>
		<path id="APRON" class="st3" d="M2634.3,2056.5l-648.6-0.1l105.4-981.2c0.7-6,5.7-10.5,11.8-10.5h32.8v145.8
			c0,20.5,16.6,37.1,37.1,37.1h172.5c20.5,0,37.1-16.6,37.1-37.1v-143l21.7,2.1c9.5,1.1,17.3,8.2,19.3,17.6L2634.3,2056.5z"/>
		<g id="HANDS_2_">
			<path id="LEFT_HAND" class="st6" d="M2016.9,986l-166,308.7c-18.6,38.5-57.6,63-100.3,63l0,0c-93.8,0-145.6-108.9-86.4-181.7
				l277.6-294.6L2016.9,986z"/>
			<g id="BOTTLE__x26__CUP">
				<g>
					<path class="st2" d="M2177.5,1077.5c-6.1-7.4-17.1-8.9-25-3.2c-8.2,5.9-10.1,17.4-4.3,25.7l-43.1-56.1
						c-19.4,11.6-44.8,6.6-58.3-12.1l-142.3-198.1l-0.1-0.1c-8.4-12,6-36.9,32.2-55.8c26.3-18.9,54.5-24.6,63.1-12.8l0.1,0.1
						l142.3,198c13.4,18.7,10.1,44.4-7.1,59.1L2177.5,1077.5z"/>
					<path class="st3" d="M2178.2,1078.4L2178.2,1078.4c6,8.4,4.1,19.9-4.2,25.9c-8.3,5.9-19.8,4.1-25.8-4.2l-0.1-0.1
						c-5.9-8.3-4-19.7,4.3-25.7C2160.7,1068.4,2172.2,1070.2,2178.2,1078.4z"/>
				</g>
				<g>
					<path class="st5" d="M2313.5,1380.9v47.6c0,16.6-13.4,30-30,30H2244c-16.6,0-30-13.5-30-30v-47.6c0.1,16.2,22.3,29.3,49.8,29.3
						C2291.2,1410.2,2313.4,1397.1,2313.5,1380.9z"/>
					<path class="st11" d="M2313.5,1380.9L2313.5,1380.9c-0.1,16.2-22.3,29.3-49.8,29.3c-27.4,0-49.7-13.1-49.8-29.3v-0.1
						c0-16.2,22.3-29.3,49.8-29.3S2313.5,1364.7,2313.5,1380.9z"/>
					<path class="st12" d="M2313.5,1349.5v31.4c0,12.6-13.4,23.3-32.3,27.5c-20.6-3.4-38.4-17-47-36.5l-5.3-12l-4.2-9.6
						c-6.8-15.4-10.2-32-10.2-48.7v-42.9c0-13.8-3.8-27.1-10.7-38.5s-16.8-21-29-27.5c-16.4-8.7-26.6-25.7-26.6-44.2V1087l0,0
						c12.8-0.2,23.2,10.1,23.2,22.9v2.8c0,17,9.4,32.5,24.5,40.3l24.2,7.4c15.1,7.8,27.4,19.5,35.9,33.5s13.2,30.3,13.2,47.3
						c0,11.1,2.2,21.9,6.3,31.9s10.1,19.3,17.9,27.2C2306.3,1313.4,2313.5,1331.1,2313.5,1349.5z"/>
				</g>
			</g>
			<g id="RIGHT_5_">
				<path class="st6" d="M2620.6,1588.7H2246c-37.9,0-68.6-30.7-68.6-68.6v-65.8c0-16,12.9-28.9,28.9-28.9h4.6v3.1
					c0,16.6,13.4,30,30,30h45.5c16.6,0,30-13.4,30-30v-29.8h12.9c6.9,0,13.5,2.6,18.6,7.2l13.3,20l259.4-17
					c49.6,0,89.9,40.3,89.9,89.9l0,0C2710.5,1548.5,2670.3,1588.7,2620.6,1588.7z"/>
				<path class="st1" d="M2177.5,1513.8l25.3,30.1c5.8,6.4,14,10,22.6,10h39.7"/>
				<path class="st1" d="M2177.5,1482.8l25.3,30.1c5.8,6.4,14,10,22.6,10h39.7"/>
				<path class="st1" d="M2177.5,1450.8l25.3,30.1c5.8,6.4,14,10,22.6,10h39.7"/>
			</g>
			<g id="LEFT_HAND_1_">
				<path class="st6" d="M2035.9,810.7L2035.9,810.7c9.4-9.5,25.1-8.4,33.1,2.3l52.2,69c8.6,11.3,8.2,27-0.9,37.9l-30.5,36.5
					c-7.8,9.3-22.3,9-29.6-0.8l-36.4-48.4c-6.5-8.6-6.2-20.5,0.6-28.8l20.3-24.9c6.9-8.5,7.3-20.5,0.9-29.4L2035.9,810.7z"/>
				<path class="st1" d="M2106.4,901l-30.5,36.5c-7.8,9.3-22.3,9-29.6-0.8"/>
				<path class="st1" d="M2091.4,881l-30.5,36.5c-7.8,9.3-22.3,9-29.6-0.8"/>
				<path class="st1" d="M2077.4,861l-30.5,36.5c-6.8,8.2-18.8,8.9-26.6,2.5"/>
			</g>
		</g>
	</g>
	<g id="BAR">
		<rect x="740.5" y="1688.9" class="st13" width="3250.1" height="1395.8"/>
		<line class="st1" x1="4075" y1="1689.5" x2="656" y2="1689.5"/>
		<line class="st1" x1="4075" y1="1734.5" x2="656" y2="1734.5"/>
	</g>
	<g id="_x32__MAN">
		<g id="LEGS_13_">
			<g id="LEGS_12_">
				<path class="st10" d="M4190.4,1671.4v1294.9h-287.8v-162.8L3703.4,2551c-43.1-54.6-63.5-123.8-57-193.1l54.8-582.4l4.3-99.4
					L4190.4,1671.4z"/>
				<polyline class="st1" points="4189.8,2768.3 3930.6,2365.3 3971.9,1903.5 4015,1894.4 				"/>
				<line class="st1" x1="3903.6" y1="2808.4" x2="4041" y2="2960.9"/>
			</g>
			<g id="SHOES_6_">
				<g>
					<g>
						<rect x="3944.9" y="2966.2" class="st11" width="202.9" height="40.1"/>
						<g>
							<g>
								<rect x="3962.4" y="2966.2" class="st5" width="4" height="40.1"/>
							</g>
							<g>
								<rect x="3983.4" y="2966.2" class="st5" width="4" height="40.1"/>
							</g>
							<g>
								<rect x="4004.4" y="2966.2" class="st5" width="4" height="40.1"/>
							</g>
							<g>
								<rect x="4025.4" y="2966.2" class="st5" width="4" height="40.1"/>
							</g>
							<g>
								<rect x="4046.4" y="2966.2" class="st5" width="4" height="40.1"/>
							</g>
							<g>
								<rect x="4067.4" y="2966.2" class="st5" width="4" height="40.1"/>
							</g>
							<g>
								<rect x="4088.4" y="2966.2" class="st5" width="4" height="40.1"/>
							</g>
							<g>
								<rect x="4109.4" y="2966.2" class="st5" width="4" height="40.1"/>
							</g>
							<g>
								<rect x="4130.4" y="2966.2" class="st5" width="4" height="40.1"/>
							</g>
						</g>
					</g>
					<path class="st3" d="M3944.5,3006.2l-45.4,73.3c-6.5,10.5,1,24,13.4,24H4122c14.2,0,25.6-11.5,25.6-25.7l-0.3-71.7
						L3944.5,3006.2L3944.5,3006.2z"/>
				</g>
				<g>
					<g>
						<g>
							<polygon class="st11" points="4084.5,2994.2 4044,2956.9 4168.9,2795.8 4206.1,2837.7 							"/>
						</g>
						<g>
							<g>
								<polygon class="st5" points="4094.6,2981.1 4092.2,2984.3 4049.7,2949.6 4052.1,2946.4 								"/>
							</g>
						</g>
						<g>
							<g>
								<polygon class="st5" points="4106,2966.5 4103.5,2969.6 4061.1,2934.9 4063.5,2931.8 								"/>
							</g>
						</g>
						<g>
							<g>
								<polygon class="st5" points="4117.4,2951.9 4114.9,2955 4072.4,2920.3 4074.9,2917.1 								"/>
							</g>
						</g>
						<g>
							<g>
								<polygon class="st5" points="4129.2,2936.6 4126.8,2939.8 4084.2,2905.1 4086.7,2901.9 								"/>
							</g>
						</g>
						<g>
							<g>
								<polygon class="st5" points="4140.6,2922 4138.1,2925.2 4095.6,2890.4 4098,2887.2 								"/>
							</g>
						</g>
						<g>
							<g>
								<polygon class="st5" points="4152.8,2906.2 4150.4,2909.4 4107.4,2875.1 4109.9,2872 								"/>
							</g>
						</g>
						<g>
							<g>
								<polygon class="st5" points="4163.8,2892.1 4161.3,2895.3 4118.7,2860.5 4121.2,2857.4 								"/>
							</g>
						</g>
						<g>
							<g>
								<polygon class="st5" points="4176.5,2875.8 4174,2878.9 4131.5,2844.1 4133.9,2840.9 								"/>
							</g>
						</g>
						<g>
							<g>
								<polygon class="st5" points="4189.7,2858.8 4187.2,2862 4144.6,2827.1 4147.1,2824 								"/>
							</g>
						</g>
						<g>
							<g>
								<polygon class="st5" points="4202.3,2842.5 4199.9,2845.6 4157.3,2810.7 4159.8,2807.6 								"/>
							</g>
						</g>
					</g>
					<path class="st3" d="M4283.6,2866.5l-43.7,74.9l-19.3-8.4l-15.5,67.9l0,0l-52.5,89.8c-4.6,7.9-13.1,12.8-22.2,12.8h-66.8
						c0,0,42.2-55.7,20.8-109.4l108.5-142.7c10.3-13.6,29-17.7,44.1-9.7L4283.6,2866.5z"/>
					<path class="st14" d="M4063.6,3105.6c0,0,46.4-75,20.8-114.4"/>
				</g>
			</g>
		</g>
		<g id="SHIRT">
			<path class="st11" d="M3710.2,1533.3l-257.4-5.2l168-303.5c35.5-63.3,102.4-102.5,175-102.5h386.9c78.8,0,148.1,52.2,169.8,127.9
				l92.3,283c41.1,141.8-128.6,249.3-239.3,151.6l-1.3-1.1c-17.8,43.4-70.8,133.6-209.7,156.7l-22.3-93.6l-13.5,98.1
				c-183.8,18.1-243.8-50.4-257.3-69.4L3710.2,1533.3z"/>
			<path class="st1" d="M4205.5,1684.7c110.7,97.7,280.3-9.8,239.3-151.6l-92.3-283c-21.7-75.7-91-127.9-169.8-127.9h-386.9
				c-72.6,0-139.5,39.2-175,102.5l-168,303.5"/>
			<line class="st1" x1="3684.1" y1="1519.9" x2="3751.6" y2="1388.6"/>
			<line class="st1" x1="3709.9" y1="1550.6" x2="3709.9" y2="1470.7"/>
		</g>
		<g id="HEAD_4_">
			<path id="NECK_2_" class="st12" d="M4053.3,1122.1l-56.2,184.2l-66.2-184.2l11.7-59.1c4.6,3.8,10.4,6.1,16.8,6.1h40.5
				c14.3,0,26.3-9.7,30-22.8h14.6L4053.3,1122.1z"/>
			<path id="HEAD_5_" class="st12" d="M4066.6,1020.5v5.1c0,11.4-9.3,20.7-20.7,20.7h-16.1c-3.6,13.1-15.7,22.8-30,22.8h-40.5
				c-6.4,0-12.2-2.3-16.8-6.1c-5.9-4.8-9.6-12.1-9.6-20.3v-61.8c0-15.1,14.4-26,28.9-21.9l38.9,10.9c8.5,2.4,14.4,10.2,14.4,19v18.5
				c0,4.5,3.4,7.8,7.4,8.3v-1.8c0-7.7,6.2-13.9,13.9-13.9h9.3C4057.3,999.9,4066.6,1009.1,4066.6,1020.5z"/>
			<path id="HAIR_2_" class="st3" d="M4048.1,982.1c0,2.9-2.2,11.1-4.2,17.8h-7.3c-7.7,0-13.9,6.2-13.9,13.9v1.7l-0.2,0.1l0,0
				c0,0,0,0-0.1,0l0,0c-0.3-0.1-1.2-0.4-2.5-0.8c-2.6-1.3-4.5-4.1-4.5-7.4v-18.5c0-8.9-5.9-16.7-14.4-19l-38.9-10.9
				c-12.7-3.6-25.4,4.4-28.3,16.6c-0.2-0.2-0.4-0.4-0.6-0.7c-17.1-18.2-17.5-52,5.5-59.2C3961.4,908.4,4048.1,976.9,4048.1,982.1z"
				/>
			<g id="FACE_1_">
				<path class="st7" d="M3963.3,1041.8c6.4,2.8,13.9-0.2,16.6-6.6"/>
				<path class="st3" d="M3953.2,996h-19.7c-1.8,0-3.2-1.4-3.2-3.2v-3.7c0-1.8,1.4-3.2,3.2-3.2h19.7c1.8,0,3.2,1.4,3.2,3.2v3.7
					C3956.4,994.6,3955,996,3953.2,996z"/>
				<path class="st3" d="M3995.1,996h-19.3c-1.8,0-3.2-1.4-3.2-3.2v-3.7c0-1.8,1.4-3.2,3.2-3.2h19.3c1.8,0,3.2,1.4,3.2,3.2v3.7
					C3998.3,994.6,3996.9,996,3995.1,996z"/>
				<ellipse class="st3" cx="3940.4" cy="1009.8" rx="3.8" ry="5.8"/>
				<ellipse class="st3" cx="3981.7" cy="1009.8" rx="3.8" ry="5.8"/>
				<path class="st8" d="M3948.9,988.8c3,0,5.4,2.4,5.4,5.4v31.8c0,3.3,2.7,6,6,6h3.6"/>
				<g>
					<path class="st15" d="M3951.4,1022.6h-24.9c-1.6,0-2.9-1.3-2.9-2.9v-20.8c0-1.6,1.3-2.9,2.9-2.9h24.9c1.6,0,2.9,1.3,2.9,2.9
						v20.8C3954.3,1021.3,3953,1022.6,3951.4,1022.6z"/>
					<path class="st15" d="M3998.4,1022.6h-24.9c-1.6,0-2.9-1.3-2.9-2.9v-20.8c0-1.6,1.3-2.9,2.9-2.9h24.9c1.6,0,2.9,1.3,2.9,2.9
						v20.8C4001.3,1021.3,4000,1022.6,3998.4,1022.6z"/>
					<line class="st15" x1="3954.3" y1="1006.2" x2="3970.6" y2="1006.2"/>
					<line class="st15" x1="4001.3" y1="1006.2" x2="4027.8" y2="1006.2"/>
				</g>
				<path class="st1" d="M4031,1049.9c-4.4,11.8-15.8,20.2-29.1,20.2h-56"/>
				<path class="st8" d="M4035,1023.9c0-7,5.7-12.7,12.7-12.7"/>
			</g>
		</g>
		<g id="TIE">
			<path class="st3" d="M4086.8,1145.7l-50.1,101.2h0.2l-28.2,56.7l40.5,334.3l-46.4,71.3l-53.3-70.6l36-332.6l-86.8-158.8
				c-7.8-14.3-3.9-32.2,9.1-41.9l30.9-23.1l-5.8,29.5c-1.4,6.9-0.8,14.1,1.6,20.7l41.2,114.6h39.5l35.7-117
				c1.6-5.1,2.1-10.5,1.4-15.9l-3.7-32l29.4,23.6C4090,1115.3,4093.6,1131.9,4086.8,1145.7z"/>
		</g>
		<g id="HANDS_1_">
			<g>
				<path class="st12" d="M4415.4,1653.2c-14.2,55.6-72.3,81.9-120.2,81.9c-40.7,0-81.5-21.2-102-65.4L4063.6,1423h-62.5
					c-41.6,0-75.3-33.7-75.3-75.3v-73.2c0-15.3,12.4-27.6,27.6-27.6l19.3,35.5c0.6,1.1,1.3,2.2,2,3.3l0,0
					c7,10.2,18.7,16.5,31.2,16.5h47.7c5.4,0,9.7-4.4,9.7-9.7c0-2.7-1.1-5.1-2.9-6.9c-1.8-1.8-4.2-2.9-6.9-2.9h-8.6
					c-8.4,0-16-3.5-21.4-9l13.3-26.7h56.1c27,0,52.1,14,66.2,37.1l242.6,281.3C4418.1,1591.4,4423.1,1623.2,4415.4,1653.2z"/>
				<line class="st1" x1="4090.2" y1="1419.9" x2="4053.7" y2="1419.9"/>
				<path class="st1" d="M3927.8,1352.8l26.1,31.1c6,6.6,14.4,10.3,23.3,10.3h41"/>
				<path class="st1" d="M3927.8,1320.8l26.1,31.1c6,6.6,14.4,10.3,23.3,10.3h41"/>
				<path class="st1" d="M3927.8,1287.8l26.1,31.1c6,6.6,14.4,10.3,23.3,10.3h41"/>
			</g>
			<g>
				<path class="st12" d="M3927.7,1733.8c-14.3,5.5-30.4,0.1-38.4-13l-5.6-9.1c-2.2-3.5-6.6-5-10.5-3.5l0,0
					c-4.2,1.6-6.4,6.1-5.2,10.4l32.1,110.6c3.6,10-4.3,20.4-14.9,19.8l-90.3-5.3c-12.7-1-23.7-9.2-28.3-21.1l-35.5-95l-206.6-56.8
					c-64.8-12.8-101.8-81.6-76.8-142.7l0,0c23-56.3,89-81.3,143.6-54.4l286.1,162c8.9,3.7,15.9,10.8,19.4,19.7L3927.7,1733.8z"/>
				<path class="st1" d="M3772.6,1758l23.9,63.7c4.6,11.9,15.6,20.1,28.3,21.1"/>
				<path class="st1" d="M3804.4,1760l23.9,63.7c4.6,11.9,15.6,20.1,28.3,21.1"/>
				<path class="st1" d="M3835.9,1761.1l23.9,63.7c4.6,11.9,15.6,20.1,28.3,21.1"/>
				<path class="st1" d="M3736.6,1745.1c-7.4-18.9-5.4-40.2,5.2-57.6"/>
			</g>
		</g>
	</g>
	<g id="WOMAN">
		<g id="LEGS_11_">
			<g id="RIGHT">
				<path class="st2" d="M3022.3,2826.2l4.7-18.2c6.5-25.4,26.8-44.8,52.4-50.2l12-2.5c-25.9-38.8,105.9-268.8,102.9-441
					s-69.7-257.7-69.7-257.7h-257.9l94.5,582.2c21,75.7,13.4,156.5-21.2,227l55-12.9C3008.4,2849.7,3018.9,2839.4,3022.3,2826.2z"/>
				<path class="st3" d="M3134.1,2876.3l-9.1,2.2l-11.6-34c-4.5-13-17.6-21-31.2-19l-0.6,0.1c-12.9,1.9-22.9,11.8-24.9,24.5
					c-1.5,9.7-3.3,21-4.8,30.1c-1.6,10.2-9.2,18.5-19.3,21l-115.7,28.4c-4.7,1.1-8.5-3.7-6.3-8l29.5-56.9l55-12.9
					c13.3-3.1,23.8-13.4,27.2-26.6l4.8-18.8c6.4-25,26.3-44.4,51.6-50.1l0,0c23.9-5.4,47.1,11.7,49,36.2L3134.1,2876.3z"/>
			</g>
			<g id="LEFT">
				<path class="st2" d="M2971.3,2838.2l4.7-18.2c6.5-25.4,26.8-44.8,52.4-50.2l12-2.5c-25.9-38.8,35.9-268.8,32.9-441
					s-79.7-269.7-79.7-269.7h-237.9l154.5,594.2c21,75.7,13.4,156.5-21.2,227l55-12.9C2957.4,2861.7,2967.9,2851.4,2971.3,2838.2z"
					/>
				<path class="st11" d="M3083.1,2889.3l-9.1,2.2l-11.6-34c-4.5-13-17.6-21-31.2-19l-0.6,0.1c-12.9,1.9-22.9,11.8-24.9,24.5
					c-1.5,9.7-3.3,21-4.8,30.1c-1.6,10.2-9.2,18.5-19.3,21l-115.7,28.4c-4.7,1.1-8.5-3.7-6.3-8l29.5-56.9l55-12.9
					c13.3-3.1,23.8-13.4,27.2-26.6l4.8-18.8c6.4-25,26.3-44.4,51.6-50.1l0,0c23.9-5.4,47.1,11.7,49,36.2L3083.1,2889.3z"/>
			</g>
			<path id="CONTOUR" class="st1" d="M3076.4,2363c16.1-194.1-83.8-308.6-83.8-308.6"/>
		</g>
		<g id="CHAIR_3_">
			<path class="st6" d="M3478.1,2088.3h-435.9c-8.8,0-15.9-7.1-15.9-15.9l0,0c0-8.8,7.1-15.9,15.9-15.9h435.9
				c8.8,0,15.9,7.1,15.9,15.9l0,0C3494,2081.2,3486.9,2088.3,3478.1,2088.3z"/>
			<g>
				<line class="st1" x1="3409" y1="2088.3" x2="3535.4" y2="3084.7"/>
				<line class="st1" x1="3111.4" y1="2088.3" x2="2985" y2="3084.7"/>
				<path class="st1" d="M3515.2,2925.4c-4.5-34.2-33.6-59.8-68.1-59.8h-373.3c-34.8,0-64.1,26-68.2,60.5"/>
			</g>
		</g>
		<path id="DRESS_1_" class="st3" d="M3387.8,2056.5h-632l-13-65.8c-16.3-82.3,32.8-163.4,113.2-187.2l384.6-113.9l-37.8-126.7
			c0,0-74.7,3-91.6-49.8c-15.2-47.5,42.1-224.7,53.7-259.7c1.2-3.6,4.6-6,8.4-6h65.5c14.7,0,28.2,7.9,35.3,20.8l48.2,86.7
			c10.6,19.1,30.7,30.9,52.6,30.9c16.6,0,31.7-6.7,42.5-17.6c10.9-10.9,17.6-25.9,17.6-42.6v-49.9c0-17.9-13.1-33-30.7-35.7
			l-7.7-1.2l41.2,5.8c28.5,4,51.2,25.8,56.5,54.1l96,514.2C3613.8,1939.4,3516.6,2056.5,3387.8,2056.5z"/>
		<g id="HEAD_1_">
			<path class="st2" d="M3434.9,1275.5v49.9c0,16.6-6.7,31.7-17.6,42.6c-10.9,10.9-25.9,17.6-42.6,17.6c-21.8,0-42-11.8-52.6-30.9
				l-48.2-86.7c-7.1-12.8-20.6-20.8-35.3-20.8h8.6c13.9,0,25.2-11.3,25.2-25.2v-34.8c-5,0.4-10.4,0.4-16.1-0.1
				c-6.5-0.6-11.4-6-11.3-12.5c0.1-7.3,0.3-17.4,0.7-27.3h-8.7c-2.6,0-4.4-2.7-3.3-5.1l13.6-31h53.3c6.2,0,11.3,5.1,11.3,11.3v11.3
				c0,1.9,1.7,3.4,3.6,3.1l5.8-0.9v-1.6c0-6.4,5.2-11.6,11.6-11.6h11.2c11.2,0,20.2,9,20.2,20.2v2.5c0,9.8-7,18-16.3,19.8l17,47.4
				c4.9,13.8,17.1,23.8,31.7,25.8l7.7,1.2C3421.9,1242.5,3434.9,1257.6,3434.9,1275.5z"/>
			<path class="st5" d="M3428.6,1054.2c0,22.1-17.9,40-40,40c-2.6,0-5.2-0.3-7.7-0.8c4.1,8.7,5.7,18.8,3.9,29.1
				c-2.6,14.7-11.6,26.9-23.8,33.9c2-3.2,3.2-6.9,3.2-10.9v-2.5c0-11.2-9.1-20.2-20.2-20.2h-11.2c-6.4,0-11.6,5.2-11.6,11.6v1.6
				l-5.8,0.9c-1.9,0.3-3.6-1.2-3.6-3.1v-11.3c0-6.2-5.1-11.3-11.3-11.3h-63.3v-4.9c0-22.6,18.3-40.9,40.9-40.9h58.7
				c4.9,0,9.7,0.7,14.1,2.1c-1.5-4.2-2.3-8.7-2.3-13.3c0-22.1,17.9-40,40-40C3410.7,1014.2,3428.6,1032.1,3428.6,1054.2z"/>
			<path class="st8" d="M3258.9,1114.7c5.8-1.3,11.8-0.1,16.5,3.7"/>
			<ellipse class="st3" cx="3264.8" cy="1129.9" rx="3.6" ry="5.6"/>
			<path class="st8" d="M3333.2,1143.4c0-6.4,5.2-11.6,11.6-11.6"/>
			<path class="st8" d="M3326.1,1163.7c0,0-16.3,22.7-52.2,25.6"/>
		</g>
		<g id="HANDS">
			<path id="RIGHT_4_" class="st2" d="M3239.2,1685h-330.9c-9.1,0-12.5-12-4.8-16.8c39.4-24.4,130.2-58.7,299.2-105.3L3239.2,1685z"
				/>
			<g id="LEFT_2_">
				<g id="GLASS">
					<path class="st3" d="M3131.3,1128.7c0,2.1-1.5,4.2-4.2,6.1c-9.7,6.7-35,11.4-64.7,11.4s-54.9-4.8-64.7-11.4
						c-2.8-1.9-4.3-3.9-4.3-6.1c0-9.7,30.9-17.5,68.9-17.5C3100.5,1111.2,3131.3,1119,3131.3,1128.7z"/>
					<line class="st1" x1="3062.4" y1="1235" x2="3062.4" y2="1292.7"/>
					<circle class="st12" cx="3039.9" cy="1140" r="15.7"/>
					<path class="st16" d="M3128,1131.8l-35.2,82.1c-2.8,6.4-7.1,11.7-12.4,15.4c-5.3,3.7-11.5,5.7-18,5.7c-13,0-24.8-8.2-30.4-21.1
						l-35.2-82.1c9.9,6.8,35.5,11.6,65.5,11.6C3092.5,1143.4,3118.1,1138.6,3128,1131.8z"/>
					<path class="st1" d="M3035,1121.8c0,0-7.6-24.7-26.8-28.7"/>
					<line class="st1" x1="3040.4" y1="1292.7" x2="3083.2" y2="1292.7"/>
				</g>
				<g id="HAND_3_">
					<g>
						<path class="st2" d="M3111.7,1175.5h-9.4c-4.8,0-7.6-4.2-6.3-9.4l0,0c1.3-5.2,6.2-9.4,11-9.4h9.4c4.8,0,7.6,4.2,6.3,9.4l0,0
							C3121.4,1171.3,3116.5,1175.5,3111.7,1175.5z"/>
						<path class="st2" d="M3107.1,1194.3h-9.4c-4.8,0-7.6-4.2-6.3-9.4l0,0c1.3-5.2,6.2-9.4,11-9.4h9.4c4.8,0,7.6,4.2,6.3,9.4l0,0
							C3116.7,1190.1,3111.8,1194.3,3107.1,1194.3z"/>
						<path class="st2" d="M3102.4,1213.2h-9.4c-4.8,0-7.6-4.2-6.3-9.4l0,0c1.3-5.2,6.2-9.4,11-9.4h9.4c4.8,0,7.6,4.2,6.3,9.4l0,0
							C3112,1209,3107.1,1213.2,3102.4,1213.2z"/>
						<path class="st2" d="M3097.7,1232h-9.4c-4.8,0-7.6-4.2-6.3-9.4l0,0c1.3-5.2,6.2-9.4,11-9.4h9.4c4.8,0,7.6,4.2,6.3,9.4l0,0
							C3107.3,1227.8,3102.4,1232,3097.7,1232z"/>
						<line class="st1" x1="3101.7" y1="1174.6" x2="3112.5" y2="1174.6"/>
						<line class="st1" x1="3096.9" y1="1195.6" x2="3107.2" y2="1195.6"/>
						<line class="st1" x1="3091.5" y1="1214.6" x2="3101.8" y2="1214.6"/>
					</g>
					<path class="st2" d="M3031.8,1219.3c1.2,6.6,1.1,17.9-0.3,24.6l-38.8,186.5l118.9-152c15.4-19.6,38.9-31.1,63.8-31.1h19.7
						c33.9,0,61.3,27.5,61.3,61.3v22c0,20-7.4,39.3-20.8,54.2l-244.2,266.7c-18.9,21-45.8,34-74.1,34c-56.6,0-92.7-47-92.7-100.4
						c0-9,1.2-18.2,3.8-27.4l104.8-318.4c30.8-79.4,72.7-79.4,72.7-79.4h47.7c1.6,0,2.9,1.4,2.8,3.1l-0.4,4.6
						c-0.7,8.3-7.7,14.7-16,14.7h-8.2c-6.8,0.5-11.4,6.5-10.8,12.8L3031.8,1219.3z"/>
					<path class="st1" d="M3007.1,1225.9c10.6-6.4,17.1-17.9,17.1-30.3"/>
					<line class="st1" x1="2991.7" y1="1430.4" x2="2949.8" y2="1480.1"/>
					<path class="st1" d="M3035.2,1605.7l-44.7,48.8c-18.9,21-45.8,35-74.1,35"/>
				</g>
			</g>
		</g>
	</g>
	<g id="_x31__MAN">
		<g id="BAG">
			<path class="st11" d="M2020.7,3084.7h-377.8c-30.3,0-54.9-24.6-54.9-54.9v-203.1c0-30.3,24.6-54.9,54.9-54.9h377.8
				c30.3,0,54.9,24.6,54.9,54.9v203.1C2075.6,3060.1,2051,3084.7,2020.7,3084.7z"/>
			<path class="st1" d="M2075.6,2823.9L2075.6,2823.9c0,18.8-12.4,35.4-30.4,40.8l-213.4,63.5l-213.4-63.5
				c-18.1-5.4-30.4-22-30.4-40.8l0,0c0-28.8,23.3-52.1,52.1-52.1h383.3C2052.3,2771.8,2075.6,2795.1,2075.6,2823.9z"/>
			<rect x="1825.5" y="2904.5" class="st6" width="13.9" height="40.5"/>
			<path class="st1" d="M1900.9,2771.8h-159.3v-5.8c0-35.2,28.6-63.8,63.8-63.8h31.7c35.2,0,63.8,28.6,63.8,63.8V2771.8z"/>
			<path class="st12" d="M1925.7,2771.2v190.1l32.8,24.9l32.2-21.6v-192.8c0-22.2-18-40.2-40.2-40.2h-64.4l0,0
				C1908,2731.7,1925.7,2749.4,1925.7,2771.2z"/>
			<path class="st3" d="M1925.7,2771.2L1925.7,2771.2c0-21.8-17.7-39.5-39.5-39.5l0,0c-18.3,0-33.2,14.9-33.2,33.2v6.3H1925.7z"/>
			<g>
				<g>
					<g>
						<path class="st3" d="M1925.7,2951c2.8,0,5,2.2,5,5s-2.2,5-5,5V2951z"/>
						<path class="st3" d="M1990.7,2951c-2.8,0-5,2.2-5,5s2.2,5,5,5V2951z"/>
						<circle class="st3" cx="1948.2" cy="2956" r="5"/>
						<circle class="st3" cx="1968.2" cy="2956" r="5"/>
					</g>
					<g>
						<circle class="st3" cx="1937" cy="2942" r="5"/>
						<circle class="st3" cx="1958.2" cy="2942" r="5"/>
						<circle class="st3" cx="1958.2" cy="2973" r="5"/>
						<circle class="st3" cx="1979.5" cy="2942" r="5"/>
					</g>
				</g>
				<g>
					<g>
						<path class="st3" d="M1925.7,2920c2.8,0,5,2.2,5,5s-2.2,5-5,5V2920z"/>
						<path class="st3" d="M1990.7,2920c-2.8,0-5,2.2-5,5s2.2,5,5,5V2920z"/>
						<circle class="st3" cx="1948.2" cy="2925" r="5"/>
						<circle class="st3" cx="1968.2" cy="2925" r="5"/>
					</g>
					<g>
						<circle class="st3" cx="1937" cy="2911" r="5"/>
						<circle class="st3" cx="1958.2" cy="2911" r="5"/>
						<circle class="st3" cx="1979.5" cy="2911" r="5"/>
					</g>
				</g>
				<g>
					<g>
						<path class="st3" d="M1925.7,2889c2.8,0,5,2.2,5,5s-2.2,5-5,5V2889z"/>
						<path class="st3" d="M1990.7,2889c-2.8,0-5,2.2-5,5s2.2,5,5,5V2889z"/>
						<circle class="st3" cx="1948.2" cy="2894" r="5"/>
						<circle class="st3" cx="1968.2" cy="2894" r="5"/>
					</g>
					<g>
						<circle class="st3" cx="1937" cy="2880" r="5"/>
						<circle class="st3" cx="1958.2" cy="2880" r="5"/>
						<circle class="st3" cx="1979.5" cy="2880" r="5"/>
					</g>
				</g>
				<g>
					<g>
						<path class="st3" d="M1925.7,2858c2.8,0,5,2.2,5,5s-2.2,5-5,5V2858z"/>
						<path class="st3" d="M1990.7,2858c-2.8,0-5,2.2-5,5s2.2,5,5,5V2858z"/>
						<circle class="st3" cx="1948.2" cy="2863" r="5"/>
						<circle class="st3" cx="1968.2" cy="2863" r="5"/>
					</g>
					<g>
						<circle class="st3" cx="1937" cy="2849" r="5"/>
						<circle class="st3" cx="1958.2" cy="2849" r="5"/>
						<circle class="st3" cx="1979.5" cy="2849" r="5"/>
					</g>
				</g>
				<g>
					<g>
						<path class="st3" d="M1925.7,2827c2.8,0,5,2.2,5,5s-2.2,5-5,5V2827z"/>
						<path class="st3" d="M1990.7,2827c-2.8,0-5,2.2-5,5s2.2,5,5,5V2827z"/>
						<circle class="st3" cx="1948.2" cy="2832" r="5"/>
						<circle class="st3" cx="1968.2" cy="2832" r="5"/>
					</g>
					<g>
						<circle class="st3" cx="1937" cy="2818" r="5"/>
						<circle class="st3" cx="1958.2" cy="2818" r="5"/>
						<circle class="st3" cx="1979.5" cy="2818" r="5"/>
					</g>
				</g>
				<g>
					<g>
						<path class="st3" d="M1925.7,2796c2.8,0,5,2.2,5,5s-2.2,5-5,5V2796z"/>
						<path class="st3" d="M1990.7,2796c-2.8,0-5,2.2-5,5s2.2,5,5,5V2796z"/>
						<circle class="st3" cx="1948.2" cy="2801" r="5"/>
						<circle class="st3" cx="1968.2" cy="2801" r="5"/>
					</g>
					<g>
						<circle class="st3" cx="1937" cy="2787" r="5"/>
						<circle class="st3" cx="1958.2" cy="2787" r="5"/>
						<circle class="st3" cx="1979.5" cy="2787" r="5"/>
					</g>
				</g>
				<g>
					<g>
						<path class="st3" d="M1924.7,2764c3.5,0,6,2.2,6,5s-2.2,5-5,5L1924.7,2764z"/>
						<path class="st3" d="M1990.7,2771.8v2.1c-2.8,0-5-2.2-5-5c0-2.5,1.8-4.6,4.2-4.9C1990.5,2766.6,1990.7,2769.2,1990.7,2771.8z"
							/>
						<circle class="st3" cx="1948.2" cy="2769" r="5"/>
						<circle class="st3" cx="1968.2" cy="2769" r="5"/>
					</g>
					<g>
						<circle class="st3" cx="1937" cy="2755" r="5"/>
						<circle class="st3" cx="1958.2" cy="2755" r="5"/>
						<circle class="st3" cx="1979.5" cy="2755" r="5"/>
					</g>
				</g>
				<g>
					<g>
						<circle class="st3" cx="1924" cy="2741" r="5"/>
						<circle class="st3" cx="1945.2" cy="2741" r="5"/>
						<circle class="st3" cx="1966.5" cy="2741" r="5"/>
					</g>
				</g>
			</g>
		</g>
		<g id="LEGS_9_">
			<g id="SHOES_5_">
				<g>
					<path class="st11" d="M1801.8,2982.3c-107.4,36.7-181.4,7.2-181.4,7.2l-6.3-13.1l183.6-1.5L1801.8,2982.3z"/>
					<path class="st5" d="M1620.4,2989.5c0,0-34.2,11.2-34,95.2l304.1-2.1l-0.2-3.5c-0.6-11.7-6.9-22.3-17-28.3
						c-22.5-13.2-46.6-35.2-71.5-68.6C1801.8,2982.3,1709.6,3019.8,1620.4,2989.5z"/>
					<line class="st17" x1="1586.4" y1="3082.7" x2="1890.4" y2="3080.6"/>
					<line class="st17" x1="1785.4" y1="3011" x2="1825.4" y2="2999.6"/>
					<line class="st17" x1="1797.4" y1="3027" x2="1837.4" y2="3015.6"/>
				</g>
				<g>
					<path class="st11" d="M1209.6,2715.2v19.4c0,0,63.7,52.4,177.2,51.8l7.6-17.8L1209.6,2715.2z"/>
					<path class="st5" d="M1209.6,2734.6c0,0-39.2,9.3-65.7,88.9l289,94.7l1-3.4c3.2-11.2,0.5-23.4-7.1-32.2
						c-17.1-19.7-45.1-58.5-39.9-96.3C1386.7,2786.4,1284.6,2791.7,1209.6,2734.6z"/>
					<line class="st17" x1="1143.9" y1="2823.5" x2="1432.9" y2="2918.2"/>
					<line class="st17" x1="1369.6" y1="2834.4" x2="1405.9" y2="2836.2"/>
					<line class="st17" x1="1359.6" y1="2813.4" x2="1395.9" y2="2815.2"/>
				</g>
			</g>
			<g id="LEGS_8_">
				<path class="st3" d="M901.1,2043.7c15.4,8.1,32.9,12.8,51.5,12.8H1288l509.3,918.4l-231.1,1c-46.8-43.5-113.8-130.7-170.7-210.1
					L901.1,2043.7z"/>
				<path class="st3" d="M952.5,2056.5h391.6c13.5,0,21.3,15.3,13.4,26.2c-49.7,69-175.6,294.6-148,632.5l184.8,53.4l294-704.9
					c47.7-115.6-18.7-246.5-140.1-276.4l-313.5-77.2H842.5v236.3C842.5,2007.2,891.7,2056.5,952.5,2056.5z"/>
				<line class="st14" x1="1383.3" y1="2788.6" x2="1520.3" y2="2473.5"/>
				<path class="st14" d="M1354.6,2082.7c-39.6,55-126.1,196.3-145,422.2"/>
			</g>
		</g>
		<g id="JACKET_1_">
			<path class="st12" d="M1196.3,1124.1l167.4,48.6c62.4,18.1,105.3,75.3,105.3,140.3v143.5c0,15.5,11.7,28.5,27.1,30.2l247,27
				v175.8h-362.5c-66.6,0-120.6-54-120.6-120.6l10-142.8v290l62,17.9c0,0-93.9,354.3-575,322.5l41.2-367h-34.8
				c-73.1,0-127.4-67.6-111.7-139l59-268.1c11.6-52.9,51.6-95,103.8-109.4l177.4-48.9H1196.3z"/>
			<g class="st18">
				<g>
					<g>
						<polygon class="st11" points="1743.1,1513.7 1743.1,1689.5 1741.1,1689.5 1741.1,1513.5 						"/>
					</g>
					<g>
						<path class="st11" d="M651,1554.1v42.4c-1.8-9.6-2.4-19.5-1.7-29.7c0.1-1.3,0.2-2.7,0.4-4C650,1559.9,650.4,1557,651,1554.1z"
							/>
					</g>
					<g>
						<path class="st11" d="M696.6,1346.7V1668c-1.4-1-2.7-2-4-3v-300.1L696.6,1346.7z"/>
					</g>
					<g>
						<path class="st11" d="M742.1,1219.2v468.4c-1.3-0.2-2.7-0.5-4-0.8v-462.6C739.4,1222.4,740.8,1220.8,742.1,1219.2z"/>
					</g>
					<g>
						<path class="st11" d="M787.7,1183.4v506.1h-4v-504C785.1,1184.7,786.4,1184,787.7,1183.4z"/>
						<polygon class="st11" points="787.7,1782.9 787.7,2056.5 783.7,2056.5 783.7,1818.5 786.4,1794.8 786.8,1790.8 						"/>
					</g>
					<g>
						<polygon class="st11" points="833.3,1167.9 833.3,2056.5 829.3,2056.5 829.3,1169 						"/>
					</g>
					<g>
						<polygon class="st11" points="878.9,1155.3 878.9,2056.5 874.9,2056.5 874.9,1156.4 						"/>
					</g>
					<g>
						<path class="st11" d="M924.5,1142.7v908.4c-1.3,0.2-2.7,0.4-4,0.6v-907.9L924.5,1142.7z"/>
					</g>
					<g>
						<path class="st11" d="M970.1,1130.1v912.8c-1.3,0.3-2.7,0.6-4,0.8v-912.5L970.1,1130.1z"/>
					</g>
					<g>
						<path class="st11" d="M1015.7,1124.3v906.8c-1.3,0.4-2.7,0.8-4,1.2v-908H1015.7z"/>
					</g>
					<g>
						<path class="st11" d="M1061.3,1124.3V2015c-1.3,0.5-2.7,1.1-4,1.6v-892.3H1061.3z"/>
					</g>
					<g>
						<path class="st11" d="M1106.9,1124.3v869.8c-1.3,0.7-2.7,1.4-4,2.1v-871.8h4V1124.3z"/>
					</g>
					<g>
						<path class="st11" d="M1152.4,1124.3V1967c-1.3,0.9-2.7,1.8-4,2.6v-845.4h4V1124.3z"/>
					</g>
					<g>
						<path class="st11" d="M1198,1124.3v808c-1.3,1.1-2.6,2.3-4,3.4v-811.4H1198z"/>
					</g>
					<g>
						<path class="st11" d="M1243.6,1137.9v749.2c-1.3,1.5-2.6,3-4,4.5v-754.9L1243.6,1137.9z"/>
					</g>
					<g>
						<path class="st11" d="M1289.2,1151.1v496.4c-1.4-1.6-2.7-3.2-4-4.9V1150L1289.2,1151.1z"/>
						<path class="st11" d="M1289.2,1721.6v104c-1.3,2.1-2.6,4.2-4,6.3v-111.5L1289.2,1721.6z"/>
					</g>
					<g>
						<path class="st11" d="M1332,1734c0,0-0.4,1.4-1.2,4v-4.3L1332,1734z"/>
						<path class="st11" d="M1334.8,1164.4v516.1c-1.4-0.5-2.7-1.1-4-1.7v-515.5L1334.8,1164.4z"/>
					</g>
					<g>
						<path class="st11" d="M1380.4,1178.7v510.8c-1.3,0-2.7,0-4-0.1v-512.3C1377.7,1177.6,1379.1,1178.2,1380.4,1178.7z"/>
					</g>
					<g>
						<path class="st11" d="M1471.6,1468.7v220.8h-4v-396.9c0,0.2,0.1,0.4,0.1,0.7c0.9,6.5,1.3,13.1,1.3,19.8v143.5
							C1469,1460.8,1469.9,1465,1471.6,1468.7z"/>
					</g>
					<g>
						<polygon class="st11" points="1562.7,1494 1562.7,1689.5 1558.7,1689.5 1558.7,1493.6 						"/>
					</g>
					<g>
						<polygon class="st11" points="1653.9,1504 1653.9,1689.5 1649.9,1689.5 1649.9,1503.5 						"/>
					</g>
					<g>
						<polygon class="st11" points="1517.1,1489 1517.1,1689.5 1513.1,1689.5 1513.1,1488.6 						"/>
					</g>
					<g>
						<path class="st11" d="M1426,1209.5v480h-4v-483.8C1423.3,1206.9,1424.7,1208.2,1426,1209.5z"/>
					</g>
					<g>
						<polygon class="st11" points="1608.3,1499 1608.3,1689.5 1604.3,1689.5 1604.3,1498.5 						"/>
					</g>
					<g>
						<polygon class="st11" points="1699.5,1509 1699.5,1689.5 1695.5,1689.5 1695.5,1508.5 						"/>
					</g>
				</g>
				<g>
					<g>
						<path class="st11" d="M1052,2018.7c-3.6,1.4-7.2,2.7-10.8,4H760.8l0.4-4H1052z"/>
					</g>
					<g>
						<path class="st11" d="M1143.2,1973.1c-2.1,1.3-4.2,2.7-6.4,4H765.9l0.5-4H1143.2z"/>
					</g>
					<g>
						<path class="st11" d="M1203.5,1927.5c-1.5,1.3-3,2.7-4.5,4H771l0.4-4H1203.5z"/>
					</g>
					<g>
						<path class="st11" d="M1248.1,1881.9c-1.1,1.3-2.3,2.7-3.4,4H776.2l0.4-4H1248.1z"/>
					</g>
					<g>
						<path class="st11" d="M1282.4,1836.3c-0.9,1.3-1.8,2.7-2.7,4H781.3l0.5-4H1282.4z"/>
					</g>
					<g>
						<path class="st11" d="M1308.8,1790.8c-0.7,1.3-1.3,2.7-2,4H786.4l0.5-4H1308.8z"/>
					</g>
					<g>
						<path class="st11" d="M1328.4,1745.2c-0.4,1.2-0.9,2.6-1.4,4H791.5l0.5-4H1328.4z"/>
					</g>
					<g>
						<polygon class="st11" points="1270,1699.6 1270,1703.6 796.6,1703.6 797.1,1699.6 						"/>
					</g>
					<g>
						<path class="st11" d="M1270,1654v4H684.6c-1.4-1.3-2.7-2.6-4-4H1270z"/>
						<path class="st11" d="M1743.1,1654v4h-443.8c-1.4-1.3-2.8-2.6-4.2-4H1743.1z"/>
					</g>
					<g>
						<path class="st11" d="M1743.1,1608.4v4H655.2c-0.5-1.3-0.9-2.7-1.3-4H1743.1z"/>
					</g>
					<g>
						<path class="st11" d="M1743.1,1562.8v4H649.3c0.1-1.3,0.2-2.7,0.4-4H1743.1z"/>
					</g>
					<g>
						<polygon class="st11" points="1743.1,1517.2 1743.1,1521.2 658.1,1521.2 659,1517.2 						"/>
					</g>
					<g>
						<path class="st11" d="M1475.8,1475.6H668.2l0.9-4h804C1473.8,1473,1474.8,1474.4,1475.8,1475.6z"/>
					</g>
					<g>
						<polygon class="st11" points="1469,1426.1 1469,1430.1 678.2,1430.1 679.1,1426.1 						"/>
					</g>
					<g>
						<polygon class="st11" points="1469,1334.9 1469,1338.9 698.3,1338.9 699.2,1334.9 						"/>
					</g>
					<g>
						<path class="st11" d="M1453.6,1247.7H723.1c0.7-1.4,1.4-2.7,2.1-4h726.2C1452.2,1245,1452.9,1246.3,1453.6,1247.7z"/>
					</g>
					<g>
						<polygon class="st11" points="1307.7,1156.5 874.5,1156.5 874.9,1156.4 878.9,1155.3 889,1152.5 1294,1152.5 						"/>
					</g>
					<g>
						<path class="st11" d="M1467.6,1293.3H708.3l0.9-4h758.4v3.3C1467.6,1292.8,1467.6,1293.1,1467.6,1293.3z"/>
					</g>
					<g>
						<polygon class="st11" points="1469,1380.5 1469,1384.5 688.2,1384.5 689.1,1380.5 						"/>
					</g>
					<g>
						<path class="st11" d="M1418,1202.1H759.3c1.6-1.4,3.3-2.7,5-4h648.8C1414.7,1199.4,1416.4,1200.7,1418,1202.1z"/>
					</g>
				</g>
			</g>
			<path class="st19" d="M1196.3,1124.1H991.9l17-26c2.6-4,7.1-6.5,12-6.5h147c5.7,0,10.9,3,13.8,7.9L1196.3,1124.1z"/>
			<g>
				<line class="st1" x1="798.2" y1="1689.5" x2="821" y2="1401.9"/>
				<line class="st1" x1="896.5" y1="2057.5" x2="911.8" y2="1859.3"/>
				<path class="st1" d="M1270,1476.1v109.8c0,57.2,46.4,103.6,103.6,103.6H1763"/>
				<circle class="st1" cx="1694.4" cy="1660" r="12.4"/>
				<circle class="st1" cx="1653.4" cy="1660" r="12.4"/>
				<path class="st1" d="M1271,1564.4c33.2-10.3,74.1,9.1,96.5,47.9c14.8,25.7,18.2,54.1,11.5,77.2"/>
				<path class="st1" d="M653,1561.4c33.2-10.3,74.1,9.1,96.5,47.9c14.8,25.7,18.2,54.1,11.5,77.2"/>
			</g>
		</g>
		<g id="CHAIR_2_">
			<g>
				<line class="st4" x1="1220.3" y1="2088.3" x2="1346.8" y2="3084.7"/>
				<line class="st4" x1="922.8" y1="2088.3" x2="796.3" y2="3084.7"/>
				<path class="st4" d="M1326.5,2925.4c-4.5-34.2-33.6-59.8-68.1-59.8H885.1c-34.8,0-64.1,26-68.2,60.5"/>
			</g>
			<path class="st6" d="M1289.5,2088.3H853.6c-8.8,0-15.9-7.1-15.9-15.9l0,0c0-8.8,7.1-15.9,15.9-15.9h435.9
				c8.8,0,15.9,7.1,15.9,15.9l0,0C1305.4,2081.2,1298.3,2088.3,1289.5,2088.3z"/>
		</g>
		<g id="CUP">
			<path class="st5" d="M1959.7,1452l-31.5,237.5h-87l-31.5-237.5c5.6,20.7,37.1,36.6,75,36.6
				C1922.7,1488.6,1954.1,1472.7,1959.7,1452z"/>
			<path class="st3" d="M1960.6,1445.4l-0.9,6.6l0,0c-5.6,20.7-37,36.6-75,36.6s-69.4-15.9-75-36.6l0,0l-0.9-6.6
				c0-23.8,34-43.2,75.9-43.2C1926.6,1402.2,1960.6,1421.5,1960.6,1445.4z"/>
			<path class="st3" d="M1808.8,1445.4l0.9,6.6C1809.1,1449.8,1808.8,1447.6,1808.8,1445.4z"/>
			<path class="st3" d="M1960.6,1445.4c0,2.2-0.3,4.4-0.9,6.6L1960.6,1445.4z"/>
		</g>
		<g id="HAND">
			<g>
				<path class="st6" d="M1796.2,1522.9h97.2v5.8c0,9.3-5.6,17.7-14.2,21.3l-24.6,10.3l0,0c1,8.8,8.5,15.4,17.3,15.4h28.5
					c12.1,0,23.4-6.3,29.7-16.7l22-36.1l0,0c9.4,0,17,7.6,17,17v79c0,39-31.6,70.6-70.6,70.6h-102.4L1796.2,1522.9L1796.2,1522.9z"
					/>
				<path class="st1" d="M1969.2,1590.9c0,39-31.6,70.6-70.6,70.6h-21.4"/>
				<path class="st1" d="M1969.2,1564.9c0,39-31.6,70.6-70.6,70.6h-21.4"/>
				<path class="st1" d="M1968.2,1536.9c0,39-30.6,70.6-69.6,70.6h-22.4"/>
			</g>
			<rect x="1743.1" y="1522.9" class="st6" width="53.1" height="166.6"/>
		</g>
		<g id="HEAD">
			<polygon id="NECK_1_" class="st6" points="1034.7,1091.6 1061.9,1035.5 1169.4,1035.5 1169,1091.6 			"/>
			<path id="HAIR" class="st3" d="M1180.4,1036l6.8,25.5c2.1,7.8-3.8,15.5-11.9,15.5h-41.5c-16.8,0-30.5-13.6-30.5-30.5v-28
				c0-11.1-9-20.2-20.2-20.2h-3.5l-2.6-21.8c-1.3-10.9,2.8-21.8,11-29.2l0,0c8.8-7.9,21.1-10.7,32.5-7.2
				c27.3,8.3,77.2,23.5,91.6,28.1c12.9,4.1-2.6,28.3-22.4,33.4L1180.4,1036z"/>
			<g id="EAR">
				<path class="st6" d="M1105.5,1013.6v30.4h-29.8c-14.4,0-26.1-11.7-26.1-26.1l0,0c0-14.4,11.7-26.1,26.1-26.1h7.9
					C1095.8,991.7,1105.5,1001.5,1105.5,1013.6z"/>
				<path class="st1" d="M1077,1005.7c8,0,14.5,6.5,14.5,14.5"/>
			</g>
			<g id="FACE">
				<path class="st6" d="M1188.9,988.5l2.9,43.2c0.2,2.3-1.7,4.2-4,4.2H1150c-14.7,0-27-10.9-28.8-25.5l-2.9-24
					c-1.7-13.7,9-25.9,22.9-25.9l0,0c3.4,0,6.8,0.8,9.9,2.2l30,14.2C1185.6,979.2,1188.5,983.6,1188.9,988.5z"/>
				<path class="st3" d="M1167,992.2l-14.4,1c-2.6,0.2-4.9-1.8-5.1-4.4l0,0c-0.2-2.6,1.8-4.9,4.4-5.1l14.4-1
					c2.6-0.2,4.9,1.8,5.1,4.4l0,0C1171.6,989.7,1169.6,992,1167,992.2z"/>
				<ellipse class="st3" cx="1161.1" cy="1003.8" rx="3.5" ry="5.5"/>
			</g>
		</g>
	</g>
	<g>
		<g>
			<path class="st3" d="M1824.8,1840.4v-6.1h56.2v6.1l-26.3,2.2h-3.5L1824.8,1840.4z M1852.9,1971.3v8.3h-28.1v-6.1l26.3-2.2
				L1852.9,1971.3L1852.9,1971.3z M1846.5,1834.4h12.8c-0.5,22.1-0.5,44.5-0.5,71.6v11.2c0,18,0,40.4,0.5,62.3h-12.8
				c0.5-22.1,0.5-44.5,0.5-66.8V1901C1847,1878.6,1847,1856.2,1846.5,1834.4z M1930,1942.3l-2.2,37.3h-75v-7.2h69.5l-6.6,7.2
				l5.9-37.3H1930z"/>
			<path class="st3" d="M1964.9,1979.6c0.4-9.7,0.6-31.9,0.6-45.2V1924c0-12.7-0.1-23.5-0.5-34.9l-19.2-0.8v-5.6l28.1-6.8l2.6,1.6
				l-0.5,26.6v30.2c0,13.4,0.2,35.5,0.6,45.2h-11.7V1979.6z M1993,1973.9v5.6h-46.1v-5.6l22.4-2.5h2.9L1993,1973.9z M1959.9,1835
				c0-5.9,4.5-9.6,9.9-9.6s9.9,3.7,9.9,9.6c0,5.8-4.5,9.6-9.9,9.6S1959.9,1840.8,1959.9,1835z"/>
			<path class="st3" d="M2051.2,1974.9c6.1,0,10.2-1.6,15.7-4.8l2.9,4.2c-5.1,5.2-12.3,8-21.2,8c-15.4,0-22.5-8.6-22.2-25.6
				c0-4.5,0.2-8.7,0.2-15.5v-55.6h-21.4v-6.3l27.5-2l-6.2,4.6l4-34.8h7.9l-1.2,36.8v72.5C2037.2,1969.4,2042.2,1974.9,2051.2,1974.9
				z M2067.8,1878v7.6h-35.9v-7.6H2067.8z"/>
			<path class="st3" d="M2121.8,1974.9c6.1,0,10.2-1.6,15.7-4.8l2.9,4.2c-5.1,5.2-12.3,8-21.2,8c-15.4,0-22.5-8.6-22.2-25.6
				c0-4.5,0.2-8.7,0.2-15.5v-55.6h-21.4v-6.3l27.5-2l-6.2,4.6l4-34.8h7.9l-1.2,36.8v72.5C2107.9,1969.4,2112.9,1974.9,2121.8,1974.9
				z M2138.5,1878v7.6h-35.9v-7.6H2138.5z"/>
			<path class="st3" d="M2201.5,1973.9v5.6h-50.7v-5.6l24-2.5h2.9L2201.5,1973.9z M2179.3,1819.2l3,1.7l-0.6,30.6v82.9
				c0,14.1,0.2,33.3,0.6,45.2h-11.9c0.4-11.9,0.6-31.2,0.6-45.2v-103.2l-18.9-0.9v-5.6L2179.3,1819.2z"/>
			<path class="st3" d="M2305.5,1915.4c0,5.1-0.5,9.1-1.4,12.2l-79.5-0.1v-6.4l62.4,0.1c6,0,7.7-3.3,7.7-9.5
				c0-15.6-10.8-30.1-28.9-30.1c-19.3,0-35.2,17.9-35.2,44.7c0,32.6,17.6,47.1,38.5,47.1c13.8,0,24.1-5.4,32.3-14.4l3.4,3
				c-8.3,12.6-21.9,20.3-38.2,20.3c-25.8,0-47.6-17.7-47.6-53.4c0-32.8,22.1-53.8,47.2-53.8
				C2290.1,1875.2,2305.5,1892.3,2305.5,1915.4z"/>
			<path class="st3" d="M2379.1,1840.4v-6.1h56.2v6.1l-26.3,2.2h-3.5L2379.1,1840.4z M2407.2,1971.3v8.3h-28.1v-6.1l26.3-2.2
				L2407.2,1971.3L2407.2,1971.3z M2400.8,1834.4h12.8c-0.5,22.1-0.5,44.5-0.5,71.6v11.2c0,18,0,40.4,0.5,62.3h-12.8
				c0.5-22.1,0.5-44.5,0.5-66.8V1901C2401.4,1878.6,2401.4,1856.2,2400.8,1834.4z M2484.3,1942.3l-2.2,37.3h-75v-7.2h69.5l-6.6,7.2
				l5.9-37.3H2484.3z"/>
			<path class="st3" d="M2589.1,1915.4c0,5.1-0.5,9.1-1.4,12.2l-79.5-0.1v-6.4l62.4,0.1c6,0,7.7-3.3,7.7-9.5
				c0-15.6-10.8-30.1-28.9-30.1c-19.3,0-35.2,17.9-35.2,44.7c0,32.6,17.6,47.1,38.5,47.1c13.8,0,24.1-5.4,32.3-14.4l3.4,3
				c-8.3,12.6-21.9,20.3-38.2,20.3c-25.8,0-47.6-17.7-47.6-53.4c0-32.8,22.1-53.8,47.2-53.8
				C2573.7,1875.2,2589.1,1892.3,2589.1,1915.4z"/>
			<path class="st3" d="M2626.2,1979.6c0.4-9.7,0.6-31.9,0.6-45.2V1924c0-13.8-0.2-24.9-0.6-34.9l-18.9-0.8v-5.6l26.2-6.8l2.6,1.6
				l1.3,23.7v33.2c0,13.4,0.2,35.5,0.6,45.2L2626.2,1979.6L2626.2,1979.6z M2654.5,1973.9v5.6h-46.1v-5.6l22.4-2.5h2.9
				L2654.5,1973.9z M2702.4,1913v21.3c0,13.8,0.2,35.5,0.6,45.2h-11.9c0.4-9.7,0.6-31.4,0.6-45.2v-20.8c0-21-7.5-28.7-19-28.7
				c-10.2,0-21.5,4.3-37,21.1h-3.8v-6.6h6.8l-5,2.1c13.9-17.4,28.4-26.3,42.5-26.3C2692.7,1875.2,2702.4,1885.4,2702.4,1913z
				 M2698.7,1971.4l20.8,2.5v5.6h-46.1v-5.6l22.4-2.5H2698.7z M2767.4,1912v22.3c0,13.8,0.2,35.5,0.6,45.2h-11.9
				c0.4-9.7,0.6-31.4,0.6-45.2v-20.9c0-21.3-7.5-28.5-19.8-28.5c-9.9,0-21.9,4.1-36.3,19.7h-4v-5.6h6.9l-5.3,1.1
				c13.2-17,27.9-24.9,42.3-24.9C2757.4,1875.2,2767.4,1885.3,2767.4,1912z M2763.7,1971.4l20.8,2.5v5.6h-46.1v-5.6l22.4-2.5H2763.7
				z"/>
			<path class="st3" d="M2802.5,1929.2c0-36.4,24-54,47.7-54c23.6,0,47.7,17.6,47.7,54s-24.1,53.2-47.7,53.2
				C2826.4,1982.4,2802.5,1965.6,2802.5,1929.2z M2885.9,1929.2c0-29.8-13.9-47.5-35.7-47.5c-22,0-35.7,17.8-35.7,47.5
				c0,29.8,13.7,46.7,35.7,46.7C2872,1975.8,2885.9,1958.9,2885.9,1929.2z"/>
			<path class="st3" d="M2935.5,1979.6c0.4-9.7,0.6-31.9,0.6-45.2V1924c0-13.8-0.2-24.9-0.6-34.9l-18.9-0.8v-5.6l26.2-6.8l2.6,1.6
				l1.3,24v32.9c0,13.4,0.2,35.5,0.6,45.2L2935.5,1979.6L2935.5,1979.6z M2963.7,1973.9v5.6h-46.1v-5.6l22.4-2.5h2.9L2963.7,1973.9z
				 M3014.4,1913v21.3c0,13.8,0.2,35.5,0.6,45.2h-11.9c0.4-9.7,0.6-31.4,0.6-45.2v-20.8c0-21.2-7.3-28.7-20.1-28.7
				c-9.9,0-22.8,4.3-38.5,21.1h-3.8v-6.6h6.8l-5.1,2.1c14.2-17.9,30.4-26.3,44.7-26.3C3004.8,1875.2,3014.4,1885.4,3014.4,1913z
				 M3010.6,1971.4l20.8,2.5v5.6h-46.1v-5.6l22.4-2.5H3010.6z"/>
		</g>
	</g>
	<g id="CHAIR__x26__BAG">
		<g>
			<path class="st17" d="M2496,1861.4h-142.7v-1c0-36.9,30-66.9,66.9-66.9h8.9c36.9,0,66.9,30,66.9,66.9L2496,1861.4L2496,1861.4z"
				/>
			<path class="st3" d="M2558.1,2056.5H2247l38.4-189.2c1.3-6.4,6.9-10.9,13.4-10.9h259.4L2558.1,2056.5L2558.1,2056.5z"/>
			<rect x="2378.1" y="1827.5" class="st11" width="189.9" height="189.9"/>
			<path class="st20" d="M2538.6,1861.4h-142.7v-1c0-36.9,30-66.9,66.9-66.9h8.9c36.9,0,66.9,30,66.9,66.9L2538.6,1861.4
				L2538.6,1861.4z"/>
			<path class="st5" d="M2634.3,2056.5h-305.1V1870c0-7.5,6.1-13.6,13.6-13.6h239.7c6.5,0,12.1,4.6,13.4,10.9L2634.3,2056.5z"/>
		</g>
		<g>
			<g>
				<line class="st4" x1="2579.5" y1="2088.3" x2="2705.9" y2="3084.7"/>
				<line class="st4" x1="2281.9" y1="2088.3" x2="2155.5" y2="3084.7"/>
				<path class="st4" d="M2685.7,2925.4c-4.5-34.2-33.6-59.8-68.1-59.8h-373.3c-34.8,0-64.1,26-68.2,60.5"/>
			</g>
			<path class="st6" d="M2648.6,2088.3h-435.9c-8.8,0-15.9-7.1-15.9-15.9l0,0c0-8.8,7.1-15.9,15.9-15.9h435.9
				c8.8,0,15.9,7.1,15.9,15.9l0,0C2664.5,2081.2,2657.4,2088.3,2648.6,2088.3z"/>
		</g>
	</g>
</g>
</svg>
