<?xml version="1.0" encoding="UTF-8"?>
<svg id="Layer_2" data-name="Layer 2" xmlns="http://www.w3.org/2000/svg" viewBox="0 0 4382.86 1635.65">
  <defs>
    <style>
      .cls-1 {
        stroke-width: 6px;
      }

      .cls-1, .cls-2, .cls-3, .cls-4, .cls-5, .cls-6, .cls-7, .cls-8, .cls-9, .cls-10, .cls-11, .cls-12, .cls-13, .cls-14, .cls-15, .cls-16 {
        fill: none;
      }

      .cls-1, .cls-2, .cls-3, .cls-7, .cls-8, .cls-11, .cls-13, .cls-14, .cls-15, .cls-16 {
        stroke-linecap: round;
      }

      .cls-1, .cls-2, .cls-5, .cls-7, .cls-15 {
        stroke: #fff;
      }

      .cls-1, .cls-4, .cls-5, .cls-6, .cls-8, .cls-9, .cls-10, .cls-13, .cls-14, .cls-15, .cls-16 {
        stroke-miterlimit: 10;
      }

      .cls-17 {
        fill: #f1b104;
      }

      .cls-18 {
        fill: #f6acc1;
      }

      .cls-19 {
        fill: #fff;
      }

      .cls-20 {
        fill: #fcd4d0;
      }

      .cls-21 {
        fill: #ff8b33;
      }

      .cls-22 {
        fill: #fde5e3;
      }

      .cls-23 {
        fill: #ff6e00;
      }

      .cls-24 {
        fill: #96cfce;
      }

      .cls-25 {
        fill: #a9d8d5;
      }

      .cls-26 {
        fill: #e0f1f0;
      }

      .cls-27 {
        fill: #573240;
      }

      .cls-28 {
        fill: #82cdc5;
      }

      .cls-2, .cls-3, .cls-4, .cls-5, .cls-6, .cls-13, .cls-14, .cls-15, .cls-16 {
        stroke-width: 5px;
      }

      .cls-2, .cls-3, .cls-7, .cls-11, .cls-12 {
        stroke-linejoin: round;
      }

      .cls-3, .cls-8, .cls-11, .cls-12, .cls-14 {
        stroke: #573240;
      }

      .cls-4, .cls-9, .cls-16 {
        stroke: #f1b104;
      }

      .cls-6, .cls-13 {
        stroke: #a9d8d5;
      }

      .cls-7, .cls-8, .cls-9, .cls-10, .cls-11, .cls-12 {
        stroke-width: 4px;
      }

      .cls-10 {
        stroke: #96cfce;
      }
    </style>
  </defs>
  <g id="_Слой_1" data-name="Слой 1">
    <g>
      <g id="PIZZERIA">
        <g id="SIGNBOARD">
          <g>
            <line class="cls-11" x1="4022.04" y1="740.9" x2="4061.09" y2="740.9"/>
            <line class="cls-11" x1="4022.04" y1="761.9" x2="4061.09" y2="761.9"/>
          </g>
          <circle class="cls-17" cx="4170.78" cy="754.58" r="115.63"/>
          <g>
            <path class="cls-7" d="M4218.78,773.4l-44.05-102.83-45.95,101.13s38.61,25.53,90,1.7Z"/>
            <line class="cls-7" x1="4205.66" y1="777.12" x2="4168.07" y2="686.81"/>
            <line class="cls-7" x1="4193.56" y1="780.84" x2="4160.88" y2="702.34"/>
            <line class="cls-7" x1="4179.43" y1="782.7" x2="4153.04" y2="719.29"/>
            <line class="cls-7" x1="4165.31" y1="782.7" x2="4145.6" y2="735.35"/>
            <line class="cls-7" x1="4150.18" y1="779.91" x2="4138.24" y2="751.24"/>
          </g>
          <line class="cls-15" x1="4107.78" y1="805.86" x2="4233.78" y2="805.86"/>
          <g>
            <rect class="cls-28" x="4137.61" y="822.09" width="22.11" height="15.93"/>
            <rect class="cls-19" x="4159.72" y="822.09" width="22.11" height="15.93"/>
            <rect class="cls-23" x="4181.83" y="822.09" width="22.12" height="15.93"/>
          </g>
        </g>
        <rect id="BUILDING" class="cls-18" x="2927.54" y="738.94" width="1094.5" height="893.2"/>
        <g id="DOOR">
          <g>
            <polyline class="cls-11" points="2946.01 1632.14 2946.01 1595.31 3419.82 1595.31 3419.82 1632.14"/>
            <polyline class="cls-11" points="2981.62 1595.31 2981.62 1562.31 3384.2 1562.31 3384.2 1595.31"/>
          </g>
          <g>
            <g>
              <rect class="cls-19" x="3013.86" y="839.9" width="338.11" height="720.25" rx="9.34" ry="9.34"/>
              <rect class="cls-27" x="3041.07" y="866.77" width="283.69" height="481.77" rx="16.09" ry="16.09"/>
              <g>
                <polyline class="cls-7" points="3211.5 975.68 3182.91 924.36 3154.87 975.68"/>
                <rect class="cls-17" x="3097.34" y="975.68" width="171" height="47.02" rx="8.76" ry="8.76"/>
              </g>
            </g>
            <circle class="cls-16" cx="3289.88" cy="1149.41" r="15.56"/>
            <g>
              <line class="cls-15" x1="3084.21" y1="1168.46" x2="3278.63" y2="974.04"/>
              <line class="cls-15" x1="3176.19" y1="1120.43" x2="3253.83" y2="1042.79"/>
              <line class="cls-15" x1="3135.86" y1="1159.62" x2="3152.07" y2="1143.42"/>
            </g>
          </g>
        </g>
        <g id="WINDOW">
          <g id="WINDOW-2" data-name="WINDOW">
            <rect class="cls-27" x="3502.37" y="839.9" width="500.86" height="508.64" rx="16.86" ry="16.86"/>
            <g>
              <line class="cls-15" x1="3668.06" y1="1241.06" x2="3899.93" y2="1009.19"/>
              <line class="cls-15" x1="3893.91" y1="1067.62" x2="3906.52" y2="1055.01"/>
              <line class="cls-15" x1="3777.75" y1="1183.77" x2="3879.53" y2="1081.99"/>
              <line class="cls-15" x1="3595.83" y1="1092.87" x2="3688.43" y2="1000.27"/>
            </g>
          </g>
          <g id="TENT">
            <polygon class="cls-25" points="3502.44 839.9 3502.44 895.64 3450.57 895.64 3502.44 839.9"/>
            <path class="cls-28" d="M3502.44,895.64v44.37h-38.85c-7.19,0-13.02-5.83-13.02-13.02v-31.35h51.87Z"/>
            <rect class="cls-19" x="3502.44" y="839.9" width="51.87" height="55.75"/>
            <rect class="cls-26" x="3502.44" y="895.64" width="51.87" height="44.37"/>
            <rect class="cls-21" x="3554.31" y="839.9" width="51.88" height="55.75"/>
            <rect class="cls-23" x="3554.31" y="895.64" width="51.88" height="44.37"/>
            <rect class="cls-25" x="3606.19" y="839.9" width="51.87" height="55.75"/>
            <rect class="cls-28" x="3606.19" y="895.64" width="51.87" height="44.37"/>
            <rect class="cls-19" x="3658.06" y="839.9" width="51.87" height="55.75"/>
            <rect class="cls-26" x="3658.06" y="895.64" width="51.87" height="44.37"/>
            <rect class="cls-21" x="3709.93" y="839.9" width="51.87" height="55.75"/>
            <rect class="cls-23" x="3709.93" y="895.64" width="51.87" height="44.37"/>
            <rect class="cls-25" x="3761.81" y="839.9" width="51.87" height="55.75"/>
            <rect class="cls-28" x="3761.81" y="895.64" width="51.87" height="44.37"/>
            <rect class="cls-19" x="3813.68" y="839.9" width="51.87" height="55.75"/>
            <rect class="cls-26" x="3813.68" y="895.64" width="51.87" height="44.37"/>
            <rect class="cls-21" x="3865.55" y="839.9" width="51.87" height="55.75"/>
            <rect class="cls-23" x="3865.55" y="895.64" width="51.87" height="44.37"/>
            <rect class="cls-25" x="3917.42" y="839.9" width="51.87" height="55.75"/>
            <rect class="cls-28" x="3917.42" y="895.64" width="51.87" height="44.37"/>
            <rect class="cls-19" x="3969.29" y="839.9" width="51.87" height="55.75"/>
            <rect class="cls-26" x="3969.29" y="895.64" width="51.87" height="44.37"/>
            <polygon class="cls-21" points="4073.04 895.64 4021.16 895.64 4021.16 839.9 4073.04 895.64"/>
            <path class="cls-23" d="M4073.04,895.64v31.35c0,7.19-5.83,13.02-13.02,13.02h-38.86v-44.37h51.88Z"/>
          </g>
        </g>
        <g id="BUSH">
          <path class="cls-25" d="M3603.28,1632.14c0-32.2,26.11-58.3,58.31-58.3,14.16,0,27.15,5.06,37.25,13.45-.76-4.56-1.15-9.23-1.15-14,0-47.3,38.35-85.66,85.67-85.66,40.43,0,74.32,28.01,83.31,65.7,12.83-4.16,26.9-6.44,41.65-6.44,47.56,0,88.03,23.78,102.94,56.95,4.15-.56,8.48-.86,12.94-.86,29.65,0,53.67,13.05,53.67,29.15h-474.59Z"/>
          <path class="cls-23" d="M3896.89,1592.09c-5.39,9.31-16.54,14.91-16.54,14.91,0,0-2.42-9.5,2.96-18.82,5.39-9.31,12.79-15.99,16.54-14.91,3.75,1.08,2.42,9.5-2.96,18.82Z"/>
          <path class="cls-23" d="M3679.74,1529.51c8.68,12.06,6.89,28.2,6.89,28.2,0,0-15.87-3.42-24.55-15.49-8.68-12.06-11.77-24.69-6.89-28.2,4.88-3.51,15.87,3.42,24.55,15.49Z"/>
          <path class="cls-27" d="M3682.09,1604.56c8.76,9.5,10.2,22.41,10.2,22.41,0,0-12.76-2.48-21.51-11.98-8.76-9.5-13.32-19.53-10.2-22.41,3.12-2.88,12.76,2.48,21.51,11.98Z"/>
          <path class="cls-23" d="M3779.63,1595.67c-8.38,9.27-21.61,13.72-21.61,13.72,0,0,2.64-14.01,11.03-23.29,8.38-9.27,16.4-12.94,19.32-10.3,2.92,2.64-.36,10.59-8.74,19.87Z"/>
          <path class="cls-27" d="M3959.45,1603.61c-3.27,9.11-12.35,14.18-12.35,14.18,0,0-3.77-9.69-.49-18.8,3.27-9.11,8.8-15.46,12.35-14.18,3.55,1.27,3.77,9.69,.49,18.8Z"/>
          <path class="cls-27" d="M3871.86,1602.47c5.1,10.9,2.03,21.78,2.03,21.78,0,0-11.34-6.8-16.44-17.71s-6.01-20.66-2.03-21.78c3.98-1.12,11.34,6.8,16.44,17.71Z"/>
          <path class="cls-27" d="M3763.88,1562.5c1.2,17.35-6.91,33.76-6.91,33.76,0,0-10.16-14.86-11.36-32.21-1.2-17.35,2.26-30.28,7.01-30.61,4.75-.33,10.06,11.71,11.26,29.06Z"/>
        </g>
        <g id="STAND">
          <g>
            <polygon class="cls-27" points="3996.68 1580.29 4127.64 1580.28 4074.88 1190.19 4074.42 1190.19 3996.68 1580.29"/>
            <line class="cls-11" x1="3999.03" y1="1579.28" x2="3988.03" y2="1631.14"/>
            <polygon class="cls-23" points="4127.61 1580.29 4371.83 1580.29 4289.09 1190.19 4074.87 1190.19 4127.61 1580.29"/>
            <polyline class="cls-11" points="4380.86 1632.14 4369.86 1580.28 4127.64 1580.28 4134.64 1632.14"/>
          </g>
          <g>
            <path class="cls-2" d="M4304.91,1382.24c9.1,51.59-22.74,93.4-71.11,93.4s-94.94-41.81-104.04-93.4c-9.09-51.58,22.74-93.39,71.11-93.39l16.47,93.39,62.46-53.39c12.57,15.14,21.62,33.53,25.12,53.39Z"/>
            <path class="cls-2" d="M4285.49,1298.06l-57.1,48.8-15.05-85.37c27.2,0,53.79,14.47,72.15,36.57Z"/>
            <ellipse class="cls-15" cx="4168.84" cy="1374.89" rx="12.37" ry="14.93" transform="translate(78.51 2968.22) rotate(-39.54)"/>
            <ellipse class="cls-15" cx="4264.9" cy="1423.74" rx="11.26" ry="13.43" transform="translate(334.61 3607.61) rotate(-47.52)"/>
            <line class="cls-15" x1="4166.26" y1="1339.49" x2="4182.63" y2="1349.01"/>
            <line class="cls-15" x1="4243.32" y1="1391.93" x2="4264.56" y2="1391.93"/>
            <line class="cls-15" x1="4204.34" y1="1399.43" x2="4221.13" y2="1411.45"/>
            <line class="cls-2" x1="4168.84" y1="1415.96" x2="4185.66" y2="1414.67"/>
            <ellipse class="cls-2" cx="4230.12" cy="1444.21" rx="5.44" ry="6.49" transform="translate(308.23 3588.6) rotate(-47.52)"/>
            <ellipse class="cls-2" cx="4185.96" cy="1317.53" rx="5.44" ry="6.49" transform="translate(387.32 3514.9) rotate(-47.52)"/>
            <ellipse class="cls-2" cx="4252.32" cy="1296.28" rx="5.44" ry="6.49" transform="translate(424.54 3556.95) rotate(-47.52)"/>
            <ellipse class="cls-2" cx="4282.47" cy="1378.12" rx="5.44" ry="6.49" transform="translate(373.96 3605.75) rotate(-47.52)"/>
            <line class="cls-2" x1="4233.11" y1="1300.05" x2="4239.2" y2="1313.53"/>
            <line class="cls-2" x1="4196.45" y1="1433.79" x2="4205.07" y2="1450.15"/>
            <line class="cls-2" x1="4268.32" y1="1356.81" x2="4283.51" y2="1356.81"/>
          </g>
        </g>
        <g id="TERRACE">
          <g id="UMBRELLAS">
            <g>
              <line class="cls-11" x1="3764.54" y1="565.08" x2="3764.54" y2="368.68"/>
              <polygon class="cls-22" points="4019.21 368.68 3516.04 368.68 3767.62 245.89 4019.21 368.68"/>
              <g>
                <path class="cls-20" d="M3516.04,368.68c0,17.64,22.53,31.95,50.32,31.95s50.32-14.3,50.32-31.95h-100.63Z"/>
                <path class="cls-20" d="M3616.67,368.68c0,17.64,22.53,31.95,50.32,31.95s50.32-14.3,50.32-31.95h-100.63Z"/>
                <path class="cls-20" d="M3717.31,368.68c0,17.64,22.53,31.95,50.32,31.95s50.32-14.3,50.32-31.95h-100.63Z"/>
                <path class="cls-20" d="M3817.94,368.68c0,17.64,22.53,31.95,50.32,31.95s50.32-14.3,50.32-31.95h-100.63Z"/>
                <path class="cls-20" d="M3918.57,368.68c0,17.64,22.53,31.95,50.32,31.95s50.32-14.3,50.32-31.95h-100.63Z"/>
              </g>
            </g>
            <g>
              <line class="cls-11" x1="3218.52" y1="565.08" x2="3218.52" y2="368.68"/>
              <polygon class="cls-22" points="3473.18 368.68 2970.01 368.68 3221.6 245.89 3473.18 368.68"/>
              <g>
                <path class="cls-20" d="M2970.01,368.68c0,17.64,22.53,31.95,50.32,31.95s50.32-14.3,50.32-31.95h-100.63Z"/>
                <path class="cls-20" d="M3070.64,368.68c0,17.64,22.53,31.95,50.32,31.95s50.32-14.3,50.32-31.95h-100.63Z"/>
                <path class="cls-20" d="M3171.28,368.68c0,17.64,22.53,31.95,50.32,31.95s50.32-14.3,50.32-31.95h-100.63Z"/>
                <path class="cls-20" d="M3271.91,368.68c0,17.64,22.53,31.95,50.32,31.95s50.32-14.3,50.32-31.95h-100.63Z"/>
                <path class="cls-20" d="M3372.55,368.68c0,17.64,22.53,31.95,50.32,31.95s50.32-14.3,50.32-31.95h-100.63Z"/>
              </g>
            </g>
          </g>
          <g id="PLANTS">
            <g>
              <path class="cls-17" d="M3935.76,606.83h-296.04c-10.12,0-18.94-6.88-21.41-16.69l-5.8-23.06h350.46l-5.8,23.06c-2.47,9.81-11.29,16.69-21.41,16.69Z"/>
              <g>
                <path class="cls-28" d="M3615.51,566.5l.1,.39c-3.64-2.05-6.1-5.96-6.1-10.44,0-6.62,5.37-11.98,11.99-11.98,2.93,0,5.61,1.05,7.69,2.79,2.82-7.69,9.57-13.11,17.44-13.11,7.14,0,13.35,4.45,16.55,11.01,2.35-1.18,4.95-1.83,7.68-1.83,3.26,0,6.32,.93,9,2.57,2.54-8.08,9.16-13.85,16.92-13.85s15,6.32,17.24,15c2.84-2.24,6.42-3.58,10.32-3.58,6.15,0,11.52,3.33,14.41,8.29,1.47-10.92,11.33-19.37,23.28-19.37,8.55,0,16.03,4.32,20.14,10.79,2.09-.58,4.3-.89,6.59-.89,6.93,0,13.17,2.85,17.48,7.37,.58-11.69,9.35-20.97,20.1-20.97,8.72,0,16.15,6.11,18.95,14.67,4.01-3.38,9.25-5.43,14.98-5.43,11.06,0,20.29,7.62,22.43,17.74,3.42-5.09,10.04-8.53,17.65-8.53,2.54,0,4.98,.38,7.22,1.09,3.78-8.36,11.49-14.08,20.38-14.08s16.52,5.67,20.32,13.97c8.68,2.53,15.13,9.71,15.91,18.38h-348.67Z"/>
                <circle class="cls-28" cx="3672.4" cy="522.61" r="6.08"/>
                <circle class="cls-28" cx="3962.97" cy="540.05" r="6.08"/>
                <circle class="cls-28" cx="3850.96" cy="526.5" r="6.08"/>
                <circle class="cls-28" cx="3781.99" cy="506.08" r="6.08"/>
              </g>
            </g>
            <g>
              <path class="cls-28" d="M3007.54,567.08l.1,.39c-3.64-2.05-6.1-5.96-6.1-10.44,0-6.62,5.37-11.98,11.99-11.98,2.93,0,5.61,1.05,7.69,2.79,2.82-7.69,9.57-13.11,17.44-13.11,7.14,0,13.35,4.45,16.55,11.01,2.35-1.18,4.95-1.83,7.68-1.83,3.26,0,6.32,.93,9,2.57,2.54-8.08,9.16-13.85,16.92-13.85s15,6.32,17.24,15c2.84-2.24,6.42-3.58,10.32-3.58,6.15,0,11.52,3.33,14.41,8.29,1.47-10.92,11.33-19.37,23.28-19.37,8.55,0,16.03,4.32,20.14,10.79,2.09-.58,4.3-.89,6.59-.89,6.93,0,13.17,2.85,17.48,7.37,.58-11.69,9.35-20.97,20.1-20.97,8.72,0,16.15,6.11,18.95,14.67,4.01-3.38,9.25-5.43,14.98-5.43,11.06,0,20.29,7.62,22.43,17.74,3.42-5.09,10.04-8.53,17.65-8.53,2.54,0,4.98,.38,7.22,1.09,3.78-8.36,11.49-14.08,20.38-14.08s16.52,5.67,20.32,13.97c8.68,2.53,15.13,9.71,15.91,18.38h-348.67Z"/>
              <path class="cls-17" d="M3330.79,606.83h-296.04c-10.12,0-18.94-6.88-21.41-16.69l-5.8-23.06h350.46l-5.8,23.06c-2.47,9.81-11.29,16.69-21.41,16.69Z"/>
              <g>
                <circle class="cls-28" cx="3190.3" cy="506.97" r="7.52"/>
                <circle class="cls-28" cx="3356.72" cy="541.37" r="6.42"/>
                <circle class="cls-28" cx="3014.69" cy="528.49" r="6.42"/>
                <circle class="cls-28" cx="2981.36" cy="581.91" r="6.42"/>
              </g>
            </g>
          </g>
          <g>
            <polyline class="cls-12" points="2927.54 565.08 4020.04 565.08 4020.04 738.95"/>
            <g>
              <line class="cls-12" x1="3000.51" y1="565.08" x2="3000.51" y2="738.95"/>
              <line class="cls-12" x1="3073.48" y1="565.08" x2="3073.48" y2="738.95"/>
              <line class="cls-12" x1="3146.44" y1="565.08" x2="3146.44" y2="738.95"/>
              <line class="cls-12" x1="3219.41" y1="565.08" x2="3219.41" y2="738.95"/>
              <line class="cls-12" x1="3292.38" y1="565.08" x2="3292.38" y2="738.95"/>
              <line class="cls-12" x1="3365.34" y1="565.08" x2="3365.34" y2="738.95"/>
              <line class="cls-12" x1="3438.31" y1="565.08" x2="3438.31" y2="738.95"/>
              <line class="cls-12" x1="3511.28" y1="565.08" x2="3511.28" y2="738.95"/>
              <line class="cls-12" x1="3584.24" y1="565.08" x2="3584.24" y2="738.95"/>
              <line class="cls-12" x1="3657.21" y1="565.08" x2="3657.21" y2="738.95"/>
              <line class="cls-12" x1="3730.17" y1="565.08" x2="3730.17" y2="738.95"/>
              <line class="cls-12" x1="3803.14" y1="565.08" x2="3803.14" y2="738.95"/>
              <line class="cls-12" x1="3876.11" y1="565.08" x2="3876.11" y2="738.95"/>
              <line class="cls-12" x1="3949.07" y1="565.08" x2="3949.07" y2="738.95"/>
            </g>
          </g>
        </g>
      </g>
      <g id="CHINESE_RESTARAUNT" data-name="CHINESE RESTARAUNT">
        <g id="BUILDING-2" data-name="BUILDING">
          <rect class="cls-17" x="1724.02" y="213.93" width="1203.53" height="1418.21"/>
          <g>
            <rect class="cls-19" x="1995.28" y="819.9" width="75" height="812.24"/>
            <rect class="cls-19" x="2556.28" y="819.9" width="75" height="812.24"/>
          </g>
        </g>
        <g id="LIGHTS">
          <g>
            <line class="cls-1" x1="1841.66" y1="719.12" x2="1841.66" y2="812.36"/>
            <path class="cls-23" d="M1924.8,869.25c0,15.24-6.18,29.05-16.18,39.04-9.98,9.99-23.79,16.18-39.03,16.18h-55.88c-30.49,0-55.22-24.72-55.22-55.22,0-15.24,6.18-29.05,16.18-39.04,9.99-9.98,23.8-16.17,39.04-16.17h55.88c30.48,0,55.21,24.72,55.21,55.21Z"/>
            <g>
              <path class="cls-23" d="M1924.8,869.25c0,15.24-6.18,29.05-16.18,39.04-9.98,9.99-23.79,16.18-39.03,16.18h-24.12c-1.28,0-2.54-.05-3.8-.13,13.72-.93,26.06-6.89,35.2-16.05,9.99-9.99,16.18-23.8,16.18-39.04,0-29.2-22.68-53.1-51.38-55.08,1.26-.08,2.52-.13,3.8-.13h24.12c30.48,0,55.21,24.72,55.21,55.21Z"/>
              <path class="cls-23" d="M1841.66,924.34c-1.26,.08-2.54,.13-3.82,.13h-24.12c-30.49,0-55.22-24.72-55.22-55.22,0-15.24,6.18-29.05,16.18-39.04,9.99-9.98,23.8-16.17,39.04-16.17h24.12c1.28,0,2.56,.05,3.82,.13-13.72,.93-26.08,6.89-35.23,16.04-9.99,9.99-16.18,23.8-16.18,39.04,0,29.21,22.69,53.12,51.4,55.08Z"/>
            </g>
            <path class="cls-15" d="M1924.8,869.25c0,15.24-6.18,29.05-16.18,39.04-9.98,9.99-23.79,16.18-39.03,16.18h-24.12c-1.28,0-2.54-.05-3.8-.13,13.72-.93,26.06-6.89,35.2-16.05,9.99-9.99,16.18-23.8,16.18-39.04,0-29.2-22.68-53.1-51.38-55.08,1.26-.08,2.52-.13,3.8-.13h24.12c30.48,0,55.21,24.72,55.21,55.21Z"/>
            <path class="cls-15" d="M1837.84,924.47h-24.12c-30.49,0-55.22-24.72-55.22-55.22,0-15.24,6.18-29.05,16.18-39.04,9.99-9.98,23.8-16.17,39.04-16.17h26.12"/>
            <line class="cls-15" x1="1841.66" y1="814.18" x2="1841.66" y2="924.34"/>
            <rect class="cls-19" x="1813.71" y="924.47" width="58.46" height="11.98"/>
            <path class="cls-15" d="M1841.66,814.18c-13.72,.93-26.08,6.89-35.23,16.04-9.99,9.99-16.18,23.8-16.18,39.04,0,29.21,22.69,53.12,51.4,55.08"/>
          </g>
          <g>
            <line class="cls-1" x1="2786.45" y1="719.12" x2="2786.45" y2="812.36"/>
            <path class="cls-23" d="M2869.59,869.25c0,15.24-6.18,29.05-16.18,39.04-9.98,9.99-23.79,16.18-39.03,16.18h-55.88c-30.49,0-55.22-24.72-55.22-55.22,0-15.24,6.18-29.05,16.18-39.04,9.99-9.98,23.8-16.17,39.04-16.17h55.88c30.48,0,55.21,24.72,55.21,55.21Z"/>
            <g>
              <path class="cls-23" d="M2869.59,869.25c0,15.24-6.18,29.05-16.18,39.04-9.98,9.99-23.79,16.18-39.03,16.18h-24.12c-1.28,0-2.54-.05-3.8-.13,13.72-.93,26.06-6.89,35.2-16.05,9.99-9.99,16.18-23.8,16.18-39.04,0-29.2-22.68-53.1-51.38-55.08,1.26-.08,2.52-.13,3.8-.13h24.12c30.48,0,55.21,24.72,55.21,55.21Z"/>
              <path class="cls-23" d="M2786.45,924.34c-1.26,.08-2.54,.13-3.82,.13h-24.12c-30.49,0-55.22-24.72-55.22-55.22,0-15.24,6.18-29.05,16.18-39.04,9.99-9.98,23.8-16.17,39.04-16.17h24.12c1.28,0,2.56,.05,3.82,.13-13.72,.93-26.08,6.89-35.23,16.04-9.99,9.99-16.18,23.8-16.18,39.04,0,29.21,22.69,53.12,51.4,55.08Z"/>
            </g>
            <path class="cls-15" d="M2869.59,869.25c0,15.24-6.18,29.05-16.18,39.04-9.98,9.99-23.79,16.18-39.03,16.18h-24.12c-1.28,0-2.54-.05-3.8-.13,13.72-.93,26.06-6.89,35.2-16.05,9.99-9.99,16.18-23.8,16.18-39.04,0-29.2-22.68-53.1-51.38-55.08,1.26-.08,2.52-.13,3.8-.13h24.12c30.48,0,55.21,24.72,55.21,55.21Z"/>
            <path class="cls-15" d="M2782.63,924.47h-24.12c-30.49,0-55.22-24.72-55.22-55.22,0-15.24,6.18-29.05,16.18-39.04,9.99-9.98,23.8-16.17,39.04-16.17h26.12"/>
            <line class="cls-15" x1="2786.45" y1="814.18" x2="2786.45" y2="924.34"/>
            <rect class="cls-19" x="2758.5" y="924.47" width="58.46" height="11.98"/>
            <path class="cls-15" d="M2786.45,814.18c-13.72,.93-26.08,6.89-35.23,16.04-9.99,9.99-16.18,23.8-16.18,39.04,0,29.21,22.69,53.12,51.4,55.08"/>
          </g>
        </g>
        <g id="WINDOWS">
          <g>
            <g>
              <rect class="cls-27" x="1793.76" y="981.82" width="138.87" height="456.11"/>
              <line class="cls-4" x1="1863.19" y1="981.82" x2="1863.19" y2="1437.93"/>
              <line class="cls-4" x1="1932.63" y1="1361.91" x2="1793.76" y2="1361.91"/>
              <line class="cls-4" x1="1932.63" y1="1285.89" x2="1793.76" y2="1285.89"/>
              <line class="cls-4" x1="1932.63" y1="1209.88" x2="1793.76" y2="1209.88"/>
              <line class="cls-4" x1="1932.63" y1="1133.86" x2="1793.76" y2="1133.86"/>
              <line class="cls-4" x1="1932.63" y1="1057.84" x2="1793.76" y2="1057.84"/>
            </g>
            <g>
              <rect class="cls-27" x="2693.93" y="981.82" width="138.87" height="456.11"/>
              <line class="cls-4" x1="2763.36" y1="981.82" x2="2763.36" y2="1437.93"/>
              <line class="cls-4" x1="2832.8" y1="1361.91" x2="2693.93" y2="1361.91"/>
              <line class="cls-4" x1="2832.8" y1="1285.89" x2="2693.93" y2="1285.89"/>
              <line class="cls-4" x1="2832.8" y1="1209.88" x2="2693.93" y2="1209.88"/>
              <line class="cls-4" x1="2832.8" y1="1133.86" x2="2693.93" y2="1133.86"/>
              <line class="cls-4" x1="2832.8" y1="1057.84" x2="2693.93" y2="1057.84"/>
            </g>
          </g>
          <g>
            <rect class="cls-27" x="2347.9" y="307.27" width="519.75" height="213.38"/>
            <polyline class="cls-4" points="2412.87 307.27 2412.87 378.4 2347.9 378.4"/>
            <polyline class="cls-4" points="2347.9 378.4 2412.87 378.4 2412.87 449.52 2347.9 449.52"/>
            <polyline class="cls-4" points="2347.9 449.52 2412.87 449.52 2412.87 520.65"/>
            <polyline class="cls-4" points="2477.84 307.27 2477.84 378.4 2412.87 378.4 2412.87 307.27"/>
            <rect class="cls-4" x="2412.87" y="378.4" width="64.97" height="71.13"/>
            <polyline class="cls-4" points="2412.87 520.65 2412.87 449.52 2477.84 449.52 2477.84 520.65"/>
            <polyline class="cls-4" points="2542.81 307.27 2542.81 378.4 2477.84 378.4 2477.84 307.27"/>
            <rect class="cls-4" x="2477.84" y="378.4" width="64.97" height="71.13"/>
            <polyline class="cls-4" points="2477.84 520.65 2477.84 449.52 2542.81 449.52 2542.81 520.65"/>
            <polyline class="cls-4" points="2607.77 307.27 2607.77 378.4 2542.81 378.4 2542.81 307.27"/>
            <rect class="cls-4" x="2542.81" y="378.4" width="64.97" height="71.13"/>
            <polyline class="cls-4" points="2542.81 520.65 2542.81 449.52 2607.77 449.52 2607.77 520.65"/>
            <polyline class="cls-4" points="2672.74 307.27 2672.74 378.4 2607.77 378.4 2607.77 307.27"/>
            <rect class="cls-4" x="2607.77" y="378.4" width="64.97" height="71.13"/>
            <polyline class="cls-4" points="2607.77 520.65 2607.77 449.52 2672.74 449.52 2672.74 520.65"/>
            <polyline class="cls-4" points="2737.71 307.27 2737.71 378.4 2672.74 378.4 2672.74 307.27"/>
            <rect class="cls-4" x="2672.74" y="378.4" width="64.97" height="71.13"/>
            <polyline class="cls-4" points="2672.74 520.65 2672.74 449.52 2737.71 449.52 2737.71 520.65"/>
            <polyline class="cls-4" points="2802.68 307.27 2802.68 378.4 2737.71 378.4 2737.71 307.27"/>
            <rect class="cls-4" x="2737.71" y="378.4" width="64.97" height="71.13"/>
            <polyline class="cls-4" points="2737.71 520.65 2737.71 449.52 2802.68 449.52 2802.68 520.65"/>
            <polyline class="cls-4" points="2867.65 378.4 2802.68 378.4 2802.68 307.27"/>
            <polyline class="cls-4" points="2867.65 449.52 2802.68 449.52 2802.68 378.4 2867.65 378.4"/>
            <polyline class="cls-4" points="2802.68 520.65 2802.68 449.52 2867.65 449.52"/>
          </g>
          <g>
            <rect class="cls-27" x="1786.03" y="307.27" width="519.75" height="213.38"/>
            <polyline class="cls-4" points="1850.99 307.27 1850.99 378.4 1786.03 378.4"/>
            <polyline class="cls-4" points="1786.03 378.4 1850.99 378.4 1850.99 449.52 1786.03 449.52"/>
            <polyline class="cls-4" points="1786.03 449.52 1850.99 449.52 1850.99 520.65"/>
            <polyline class="cls-4" points="1915.96 307.27 1915.96 378.4 1850.99 378.4 1850.99 307.27"/>
            <rect class="cls-4" x="1850.99" y="378.4" width="64.97" height="71.13"/>
            <polyline class="cls-4" points="1850.99 520.65 1850.99 449.52 1915.96 449.52 1915.96 520.65"/>
            <polyline class="cls-4" points="1980.93 307.27 1980.93 378.4 1915.96 378.4 1915.96 307.27"/>
            <rect class="cls-4" x="1915.96" y="378.4" width="64.97" height="71.13"/>
            <polyline class="cls-4" points="1915.96 520.65 1915.96 449.52 1980.93 449.52 1980.93 520.65"/>
            <polyline class="cls-4" points="2045.9 307.27 2045.9 378.4 1980.93 378.4 1980.93 307.27"/>
            <rect class="cls-4" x="1980.93" y="378.4" width="64.97" height="71.13"/>
            <polyline class="cls-4" points="1980.93 520.65 1980.93 449.52 2045.9 449.52 2045.9 520.65"/>
            <polyline class="cls-4" points="2110.87 307.27 2110.87 378.4 2045.9 378.4 2045.9 307.27"/>
            <rect class="cls-4" x="2045.9" y="378.4" width="64.97" height="71.13"/>
            <polyline class="cls-4" points="2045.9 520.65 2045.9 449.52 2110.87 449.52 2110.87 520.65"/>
            <polyline class="cls-4" points="2175.84 307.27 2175.84 378.4 2110.87 378.4 2110.87 307.27"/>
            <rect class="cls-4" x="2110.87" y="378.4" width="64.97" height="71.13"/>
            <polyline class="cls-4" points="2110.87 520.65 2110.87 449.52 2175.84 449.52 2175.84 520.65"/>
            <polyline class="cls-4" points="2240.8 307.27 2240.8 378.4 2175.84 378.4 2175.84 307.27"/>
            <rect class="cls-4" x="2175.84" y="378.4" width="64.97" height="71.13"/>
            <polyline class="cls-4" points="2175.84 520.65 2175.84 449.52 2240.8 449.52 2240.8 520.65"/>
            <polyline class="cls-4" points="2305.77 378.4 2240.8 378.4 2240.8 307.27"/>
            <polyline class="cls-4" points="2305.77 449.52 2240.8 449.52 2240.8 378.4 2305.77 378.4"/>
            <polyline class="cls-4" points="2240.8 520.65 2240.8 449.52 2305.77 449.52"/>
          </g>
        </g>
        <g id="SIGNBOARD-2" data-name="SIGNBOARD">
          <rect class="cls-27" x="1457.89" y="308.52" width="219.96" height="219.96" rx="6.24" ry="6.24"/>
          <rect class="cls-23" x="1444.01" y="308.52" width="219.96" height="219.96" rx="16.11" ry="16.11"/>
          <line class="cls-12" x1="1724.27" y1="526.74" x2="1663.97" y2="526.74"/>
          <line class="cls-12" x1="1663.97" y1="310.25" x2="1724.27" y2="310.25"/>
          <g>
            <line class="cls-11" x1="1549.2" y1="411.6" x2="1529.38" y2="345.47"/>
            <line class="cls-11" x1="1505.27" y1="347.49" x2="1540.19" y2="408.13"/>
            <polygon class="cls-19" points="1560.68 480.66 1514.02 480.66 1488 408.13 1586.7 408.13 1560.68 480.66"/>
            <polygon class="cls-27" points="1617.93 408.13 1591.9 480.66 1560.67 480.66 1586.7 408.13 1617.93 408.13"/>
          </g>
          <line class="cls-13" x1="1486.26" y1="408.13" x2="1619.66" y2="408.13"/>
        </g>
        <g id="DOOR-2" data-name="DOOR">
          <g>
            <rect class="cls-23" x="2136.1" y="862.2" width="354.36" height="733.12" rx="12.36" ry="12.36"/>
            <g>
              <rect class="cls-4" x="2191.83" y="941.82" width="64.58" height="75.56"/>
              <rect class="cls-4" x="2280.66" y="941.82" width="64.58" height="75.56"/>
              <rect class="cls-4" x="2369.49" y="941.82" width="64.58" height="75.56"/>
              <rect class="cls-4" x="2191.83" y="1044.05" width="64.58" height="75.56"/>
              <rect class="cls-4" x="2280.66" y="1044.05" width="64.58" height="75.56"/>
              <rect class="cls-4" x="2369.49" y="1044.05" width="64.58" height="75.56"/>
            </g>
            <circle class="cls-2" cx="2436.68" cy="1200.79" r="17.92"/>
          </g>
          <polyline class="cls-15" points="2070.28 1633.15 2070.28 1596.32 2556.28 1596.32 2556.28 1633.15"/>
        </g>
        <g id="ROOF">
          <g>
            <path class="cls-25" d="M2728.78,724.21h-831c109.42,0,188.16-57.43,234.77-142.3h361.46c46.61,84.87,125.35,142.3,234.77,142.3Z"/>
            <path class="cls-27" d="M1895.86,780.86c24.72,25.51,58.71,39.9,94.23,39.9h646.38c35.51,0,69.5-14.39,94.22-39.9l53.9-61.74c-18.06,3.34-36.72,5.09-55.81,5.09h-831c-19.09,0-37.76-1.75-55.82-5.09l53.9,61.74Z"/>
            <path class="cls-1" d="M2784.59,719.12c-18.06,3.34-36.72,5.09-55.81,5.09h-831c-19.09,0-37.76-1.75-55.82-5.09"/>
          </g>
          <g>
            <path class="cls-25" d="M3012.55,141.51H1612.3c105.93-19.1,195.36-71.23,248.99-141.51h902.26c53.64,70.28,143.07,122.41,249,141.51Z"/>
            <path class="cls-27" d="M3012.05,152.51c-18.36,37.58-56.53,61.42-98.36,61.42H1711.55c-41.83,0-80-23.84-98.36-61.42h1398.85Z"/>
            <line class="cls-15" x1="2132.55" y1="581.91" x2="2494.01" y2="581.91"/>
          </g>
        </g>
      </g>
      <g id="CAFE">
        <g id="BUILDING-3" data-name="BUILDING">
          <rect class="cls-25" x="627.1" y="754.21" width="1096.92" height="877.93"/>
          <line class="cls-11" x1="1724.02" y1="789.36" x2="627.1" y2="789.36"/>
          <rect class="cls-17" x="627.1" y="724.31" width="1096.92" height="29.86"/>
        </g>
        <g id="TABLE_CHAIRS" data-name="TABLE &amp;amp; CHAIRS">
          <circle class="cls-23" cx="318.12" cy="1331.89" r="42.03"/>
          <path class="cls-25" d="M379.43,1439.7h109.15c9.06,0,16.41,7.35,16.41,16.41h-141.98c0-9.06,7.35-16.41,16.41-16.41Z"/>
          <path class="cls-25" d="M133.43,1439.7h109.15c9.06,0,16.41,7.35,16.41,16.41H117.02c0-9.06,7.35-16.41,16.41-16.41Z"/>
          <g>
            <line class="cls-14" x1="591.34" y1="1308.28" x2="399.32" y2="1632.14"/>
            <polyline class="cls-14" points="593.17 1632.14 503.69 1456.11 363.02 1456.11"/>
          </g>
          <g>
            <line class="cls-14" x1="30.7" y1="1308.28" x2="222.72" y2="1632.14"/>
            <polyline class="cls-14" points="28.87 1632.14 118.35 1456.11 259.02 1456.11"/>
          </g>
          <g>
            <line class="cls-14" x1="178.3" y1="1372.29" x2="460" y2="1372.29"/>
            <line class="cls-14" x1="319.15" y1="1632.14" x2="319.15" y2="1372.29"/>
          </g>
          <ellipse class="cls-27" cx="319.17" cy="1305.08" rx="20.51" ry="15.22"/>
          <path class="cls-25" d="M319.17,1315.41s-29.09,4.85-38.52-67.33c0,0,44.89,17.18,38.52,67.33Z"/>
          <path class="cls-25" d="M321.17,1315.41s.97-31.36,45.83-24.88c0,0-13.18,22.94-45.83,24.88Z"/>
          <polyline class="cls-11" points="341.77 1273.68 319.17 1317.92 319.17 1239.08"/>
          <g>
            <ellipse class="cls-17" cx="319.57" cy="1225.32" rx="14.31" ry="23.15"/>
            <ellipse class="cls-17" cx="329.63" cy="1230.9" rx="23.15" ry="11.5" transform="translate(-773.83 593.6) rotate(-45)"/>
            <ellipse class="cls-17" cx="308.7" cy="1230.9" rx="11.5" ry="23.15" transform="translate(-779.96 578.8) rotate(-45)"/>
          </g>
          <g>
            <ellipse class="cls-17" cx="349.82" cy="1266.22" rx="17.43" ry="10.77" transform="translate(-763.9 569.57) rotate(-42.53)"/>
            <ellipse class="cls-17" cx="351.85" cy="1274.64" rx="8.66" ry="17.43" transform="translate(-936.78 1571.22) rotate(-87.53)"/>
            <ellipse class="cls-17" cx="341.19" cy="1263.03" rx="17.43" ry="8.66" transform="translate(-935.37 1549.46) rotate(-87.53)"/>
          </g>
        </g>
        <g id="LAMP">
          <path class="cls-11" d="M564.7,1136.12c0,17.23,13.97,31.2,31.2,31.2h0c17.23,0,31.2-13.97,31.2-31.2"/>
          <polygon class="cls-18" points="598.14 1069.6 529.26 1069.6 544.61 1135.43 582.79 1135.43 598.14 1069.6"/>
          <line class="cls-11" x1="519.77" y1="1069.6" x2="607.63" y2="1069.6"/>
          <path class="cls-11" d="M575.73,1046.76h-24.07c-4.11,0-7.96,1.98-10.35,5.32l-12.51,17.51h69.77l-12.51-17.51c-2.39-3.34-6.24-5.32-10.35-5.32Z"/>
          <line class="cls-11" x1="540.14" y1="1135.43" x2="587.26" y2="1135.43"/>
        </g>
        <g id="TENT-2" data-name="TENT">
          <path class="cls-17" d="M627.1,754.21v227.61c0,21.99-28.08,39.82-62.71,39.82s-62.71-17.83-62.71-39.82c0,21.99-28.08,39.82-62.71,39.82s-62.71-17.83-62.71-39.82c0,21.99-28.08,39.82-62.71,39.82s-62.71-17.83-62.71-39.82c0,21.99-28.08,39.82-62.71,39.82s-62.71-17.83-62.71-39.82c0,21.99-28.07,39.82-62.71,39.82S0,1003.81,0,981.82l627.1-227.61Z"/>
          <line class="cls-5" x1="627.1" y1="981.82" x2="0" y2="981.82"/>
        </g>
        <g id="DOOR-3" data-name="DOOR">
          <rect class="cls-19" x="715.78" y="839.9" width="415.41" height="754.24"/>
          <g>
            <g>
              <rect class="cls-27" x="733.65" y="1012.28" width="81.7" height="136.97" rx="9.12" ry="9.12"/>
              <rect class="cls-27" x="826.94" y="1012.28" width="81.7" height="136.97" rx="9.12" ry="9.12"/>
            </g>
            <g>
              <rect class="cls-27" x="733.65" y="1160.88" width="81.7" height="136.97" rx="9.12" ry="9.12"/>
              <rect class="cls-27" x="826.94" y="1160.88" width="81.7" height="136.97" rx="9.12" ry="9.12"/>
            </g>
            <g>
              <rect class="cls-27" x="733.65" y="1309.48" width="81.7" height="136.97" rx="9.12" ry="9.12"/>
              <rect class="cls-27" x="826.94" y="1309.48" width="81.7" height="136.97" rx="9.12" ry="9.12"/>
            </g>
            <g>
              <rect class="cls-27" x="733.65" y="865.88" width="81.7" height="136.97" rx="9.12" ry="9.12"/>
              <rect class="cls-27" x="826.94" y="865.88" width="81.7" height="136.97" rx="9.12" ry="9.12"/>
            </g>
          </g>
          <g>
            <g>
              <rect class="cls-27" x="938.83" y="1012.28" width="81.25" height="136.97" rx="9.12" ry="9.12"/>
              <rect class="cls-27" x="1032.58" y="1012.28" width="81.25" height="136.97" rx="9.12" ry="9.12"/>
            </g>
            <g>
              <rect class="cls-27" x="938.83" y="865.88" width="81.25" height="136.97" rx="9.12" ry="9.12"/>
              <rect class="cls-27" x="1032.58" y="865.88" width="81.25" height="136.97" rx="9.12" ry="9.12"/>
            </g>
            <g>
              <rect class="cls-27" x="938.83" y="1160.88" width="81.25" height="136.97" rx="9.12" ry="9.12"/>
              <rect class="cls-27" x="1032.58" y="1160.88" width="81.25" height="136.97" rx="9.12" ry="9.12"/>
            </g>
            <g>
              <rect class="cls-27" x="938.83" y="1309.48" width="81.25" height="136.97" rx="9.12" ry="9.12"/>
              <rect class="cls-27" x="1032.58" y="1309.48" width="81.25" height="136.97" rx="9.12" ry="9.12"/>
            </g>
          </g>
          <line class="cls-6" x1="923.49" y1="839.9" x2="923.49" y2="1595.31"/>
          <polyline class="cls-11" points="684.83 1632.14 684.83 1595.31 1158.64 1595.31 1158.64 1632.14"/>
          <circle class="cls-23" cx="883.77" cy="1155.74" r="17"/>
          <circle class="cls-23" cx="963.77" cy="1155.74" r="17"/>
        </g>
        <g id="WINDOW-3" data-name="WINDOW">
          <g id="WINDOW-4" data-name="WINDOW">
            <rect class="cls-27" x="1231.31" y="981.82" width="408" height="387.54"/>
            <rect class="cls-15" x="1216.3" y="981.82" width="439.02" height="387.54"/>
            <g>
              <line class="cls-15" x1="1319.6" y1="1246.97" x2="1530" y2="1036.57"/>
              <line class="cls-15" x1="1435.7" y1="1175.55" x2="1530" y2="1081.25"/>
              <line class="cls-15" x1="1380.99" y1="1230.26" x2="1411.65" y2="1199.6"/>
            </g>
          </g>
          <g id="FLOWERS">
            <path class="cls-18" d="M1658.18,1369.36v22.91c0,25.22-21.31,45.66-47.59,45.66h-348.82c-26.28,0-47.59-20.44-47.59-45.66v-22.91h444Z"/>
            <g>
              <path class="cls-24" d="M1448.78,1367.19s-10.13-37.36-49.95-43.75c0,0,4.49,32.78,30.65,43.75h19.31Z"/>
              <path class="cls-24" d="M1571.76,1367.98s20.32-25.49,53.72-27.64c0,0-6.01,18.32-21.38,27.64h-32.35Z"/>
              <path class="cls-24" d="M1516.83,1367.98s-52.39-51.91-45.34-136c0,0,66.93,67.45,61.98,136h-16.64Z"/>
              <path class="cls-24" d="M1564.5,1367.98s-3.62-51.02,51.9-72.28c0,0-2.37,42.17-40.91,72.28h-10.99Z"/>
              <line class="cls-10" x1="1542.34" y1="1291.67" x2="1542.34" y2="1370.51"/>
              <g>
                <path class="cls-10" d="M1560.17,1339.69s-8.58,4.01-8.16,30.93"/>
                <g>
                  <path class="cls-19" d="M1587.74,1331.25c-.27,.52-.58,1.02-.9,1.48,1.23-2.5,1.53-4.93,.67-6.89-1.96-4.47-9.31-4.99-16.96-1.44-1.39-8.32-5.97-14.09-10.76-13.19-2.05,.38-3.84,1.93-5.2,4.24,.18-.46,.4-.91,.63-1.36,3.26-6.18,10.12-8.97,15.32-6.23,2.7,1.42,4.42,4.06,4.99,7.13,2.86-1.26,6-1.33,8.7,.09,5.2,2.74,6.77,9.98,3.51,16.16Z"/>
                  <path class="cls-23" d="M1576.31,1342.98c-6.49,3.6-13.07,4.27-16.66,2.09-3.83-1.74-6.99-7.55-7.68-14.94-.89-9.47,2.61-17.94,7.82-18.92,4.8-.9,9.38,4.87,10.76,13.19,7.65-3.55,15-3.03,16.96,1.44,2.13,4.85-2.88,12.52-11.2,17.13Z"/>
                </g>
              </g>
              <path class="cls-23" d="M1562.15,1287.71c-5.04,7.38-13.16,12.03-19.94,11.96-6.84,.07-15-4.75-19.94-12.32-6.04-9.26-4.96-19.11,2.4-22,5.15-2.02,13.07,1.02,17.74,8.94h0c4.42-8.22,12.73-10.73,17.84-8.61,7.3,3.03,8.15,12.9,1.9,22.04Z"/>
              <g>
                <path class="cls-8" d="M1389.47,1315.25s29.77,9.85,34.89,53.23"/>
                <path class="cls-19" d="M1402,1291.67c-1.94-5.53-5.37-9.17-9.05-8.94-5.28,.33-9.07,8.49-8.46,18.24,.04,.72,.11,1.43,.2,2.13-.75,.06-1.51,.16-2.28,.28-9.63,1.55-16.77,7.05-15.93,12.27,.54,3.39,4.32,5.83,9.54,6.7-6.83,.21-12.74-3.36-14-8.92-.86-3.78,.61-7.65,3.61-10.61-3.26-5.17-3.45-11.28,.01-15.2,3.2-3.62,8.64-4.39,13.81-2.43,1.94-4.11,5.42-6.93,9.53-7.19,6.46-.4,12.13,5.66,13.01,13.69Z"/>
                <path class="cls-23" d="M1403.59,1299.77c.49,7.87-1.86,15.16-5.57,17.67-2.88,2.46-7.37,3.99-12.56,4.82-9.64,1.55-18.14-1.42-18.97-6.64-.84-5.22,6.29-10.71,15.93-12.27,.77-.13,1.53-.22,2.28-.28-.09-.69-.16-1.4-.2-2.13-.6-9.74,3.18-17.91,8.46-18.24,5.28-.33,10.04,7.31,10.65,17.05Z"/>
              </g>
              <circle class="cls-9" cx="1625.48" cy="1322.7" r="5.75"/>
              <circle class="cls-9" cx="1419.05" cy="1306.81" r="5.75"/>
              <circle class="cls-9" cx="1352.39" cy="1328.44" r="5.75"/>
              <circle class="cls-9" cx="1247.56" cy="1352.39" r="5.75"/>
              <circle class="cls-9" cx="1522.1" cy="1236.86" r="5"/>
              <path class="cls-10" d="M1458.89,1324.07s3.89,24.5,36.15,45.29"/>
              <circle class="cls-17" cx="1455.57" cy="1322.05" r="21"/>
              <g>
                <path class="cls-24" d="M1337.78,1367.19s-3.3-54.52-43.78-67.49c0,0-2.65,53.69,37.47,67.49h6.31Z"/>
                <path class="cls-24" d="M1334.27,1367.98s21.74-26.91,57.49-29.19c0,0-6.43,19.34-22.87,29.19h-34.62Z"/>
                <line class="cls-10" x1="1333.34" y1="1291.67" x2="1333.34" y2="1370.51"/>
                <circle class="cls-17" cx="1333.73" cy="1285.89" r="21"/>
              </g>
              <g>
                <path class="cls-10" d="M1265.89,1341.07s6.55,24.64,43.15,28.29"/>
                <g>
                  <path class="cls-19" d="M1281.65,1315.61c.05,.59,.07,1.16,.05,1.74-.33-2.77-1.41-4.97-3.2-6.14-4.08-2.67-10.53,.9-15,8.05-5.7-6.21-12.69-8.55-16.22-5.18-1.51,1.44-2.16,3.71-2.04,6.39-.09-.48-.17-.98-.21-1.48-.64-6.96,3.59-13.04,9.44-13.58,3.04-.28,5.92,.99,8.07,3.25,1.71-2.62,4.31-4.39,7.35-4.67,5.85-.54,11.12,4.67,11.76,11.63Z"/>
                  <path class="cls-23" d="M1278.46,1331.68c-3.47,6.56-8.62,10.71-12.82,10.85-4.16,.63-9.98-2.51-14.59-8.33-5.92-7.45-7.6-16.46-3.77-20.12,3.53-3.37,10.51-1.03,16.22,5.18,4.47-7.15,10.92-10.72,15-8.05,4.44,2.9,4.42,12.06-.04,20.47Z"/>
                </g>
              </g>
            </g>
            <line class="cls-15" x1="1216.3" y1="1369.36" x2="1655.32" y2="1369.36"/>
            <path class="cls-19" d="M1566.15,1277.98c.81-5.59-1.22-10.37-5.91-12.31-5.1-2.12-12.01,4.21-17.84,8.61h0c-5.73-4.5-12.59-10.96-17.74-8.94-4.87,1.91-6.99,6.87-6.12,12.69-2.74-7.28-.94-14.98,4.66-18.22,2.8-1.62,6.1-1.85,9.31-.93,2.19-4.26,5.78-7.03,9.82-7.03s7.63,2.77,9.82,7.03c3.21-.92,6.51-.69,9.31,.93,5.59,3.23,7.4,10.9,4.68,18.17Z"/>
          </g>
          <g id="TENT-3" data-name="TENT">
            <path class="cls-17" d="M1686.15,981.82c0,21.99-28.08,39.82-62.71,39.82s-62.71-17.83-62.71-39.82c0,21.99-28.08,39.82-62.71,39.82s-62.71-17.83-62.71-39.82c0,21.99-28.08,39.82-62.71,39.82s-62.71-17.83-62.71-39.82c0,21.99-28.08,39.82-62.71,39.82s-62.71-17.83-62.71-39.82l42.52-141.92h416.64l42.52,141.92Z"/>
            <line class="cls-15" x1="1184.47" y1="981.82" x2="1686.15" y2="981.82"/>
            <line class="cls-15" x1="1226.99" y1="839.9" x2="1643.63" y2="839.9"/>
          </g>
        </g>
        <g id="SIGNBOARD-3" data-name="SIGNBOARD">
          <polyline class="cls-12" points="747.55 754.21 747.55 694.48 1092.95 694.48 1092.95 754.21"/>
          <path class="cls-18" d="M1129.44,596v85.44c0,7.21-5.74,13.05-12.83,13.05h-392.72c-7.08,0-12.83-5.84-12.83-13.05v-85.44c25.18-43.98,109.29-89.62,209.19-89.62s184.01,45.64,209.19,89.62Z"/>
          <path class="cls-8" d="M1129.44,596v85.44c0,7.21-5.74,13.05-12.83,13.05h-392.72c-7.08,0-12.83-5.84-12.83-13.05v-85.44c25.18-43.98,109.29-89.62,209.19-89.62s184.01,45.64,209.19,89.62Z"/>
          <g>
            <path class="cls-14" d="M851.15,587.39h-6.75c-19.77,0-35.8,16.03-35.8,35.8h0c0,4.2,3.4,7.6,7.6,7.6h159.45"/>
            <path class="cls-14" d="M901.11,566.65h-10.01c-26.23,0-47.49,21.26-47.49,47.49v.36c0,9,7.29,16.29,16.29,16.29"/>
            <path class="cls-14" d="M985.75,579.72c-5.67-17-21.71-29.25-40.61-29.25h-9.92c-23.64,0-42.8,19.16-42.8,42.8v20.2c0,9.56,7.75,17.32,17.32,17.32"/>
            <path class="cls-14" d="M949.58,620.42v-10c0-16.96,13.75-30.7,30.7-30.7h2.9c15.01,0,29.07,7.3,37.71,19.57l8.77,12.46c5.64,8.01-.09,19.04-9.88,19.04h-59.85c-5.72,0-10.37-4.64-10.37-10.37Z"/>
          </g>
          <line class="cls-3" x1="845.25" y1="655.62" x2="995.25" y2="655.62"/>
        </g>
      </g>
    </g>
  </g>
</svg>